<svg width="299" height="396" viewBox="0 0 299 396" fill="none" xmlns="http://www.w3.org/2000/svg">
<path d="M23.9037 359.137C28.8257 359.137 34.5015 360.181 38.0099 362.616V366.096C34.5015 363.066 28.9271 361.87 23.9544 361.87C11.914 361.87 4.1215 367.893 4.1215 377.041C4.1215 386.189 12.001 392.213 24.2081 392.213C29.1808 392.213 34.5015 390.966 38.0099 387.987V391.467C34.5015 393.902 29.1228 394.946 24.1574 394.946C10.1018 394.946 1.0625 387.784 1.0625 377.041C1.0625 366.299 10.0004 359.137 23.9037 359.137Z" fill="#334454"/>
<path d="M24.1638 395.314C9.90528 395.314 0.699219 388.138 0.699219 377.04C0.699219 365.942 9.81831 358.766 23.9101 358.766C29.673 358.766 35.0299 360.092 38.2266 362.318L38.3861 362.426V366.913L37.7699 366.384C34.7182 363.753 29.6874 362.245 23.9536 362.245C12.1306 362.245 4.49762 368.059 4.49762 377.047C4.49762 386.036 12.2321 391.849 24.2072 391.849C29.7309 391.849 34.6747 390.342 37.7699 387.71L38.3861 387.188V391.661L38.2266 391.77C34.9791 394.024 29.8469 395.322 24.1638 395.322V395.3V395.314ZM23.9101 359.505C10.2677 359.505 1.43862 366.384 1.43862 377.04C1.43862 387.696 10.3547 394.575 24.1565 394.575C29.6004 394.575 34.5007 393.372 37.6394 391.262V388.747C34.3919 391.19 29.5569 392.574 24.2072 392.574C11.7827 392.574 3.75096 386.471 3.75096 377.033C3.75096 367.595 11.6812 361.491 23.9536 361.491C29.4989 361.491 34.4282 362.876 37.6394 365.311V362.796C34.5369 360.723 29.4265 359.483 23.9028 359.483L23.9101 359.505Z" fill="#334454"/>
<path d="M24.1625 395.63C17.1311 395.63 11.1725 393.876 6.9174 390.556C2.64057 387.214 0.378906 382.539 0.378906 377.037C0.378906 371.535 2.6116 366.859 6.85218 363.518C11.0565 360.198 16.9643 358.443 23.916 358.443C29.744 358.443 35.1662 359.792 38.4137 362.053L38.7037 362.249V367.591L37.5584 366.606C34.5718 364.025 29.6063 362.546 23.9522 362.546C12.3323 362.546 4.81521 368.229 4.81521 377.029C4.81521 385.83 12.4193 391.513 24.2059 391.513C29.6498 391.513 34.5211 390.027 37.5584 387.446L38.6964 386.482V391.81L38.4065 392.006C35.1083 394.296 29.9036 395.616 24.1625 395.616H24.1697L24.1625 395.63ZM23.9088 359.828C10.4549 359.828 1.76346 366.591 1.76346 377.044C1.76346 387.497 10.5564 394.26 24.1625 394.26C29.4614 394.26 34.2311 393.115 37.3264 391.1V389.367C34.0354 391.621 29.3599 392.897 24.2132 392.897C11.5929 392.897 3.44516 386.678 3.44516 377.044C3.44516 367.41 11.4914 361.191 23.9595 361.191C29.2802 361.191 34.0644 362.459 37.3192 364.706V362.981C34.2602 360.995 29.2802 359.821 23.9088 359.821V359.828Z" fill="#334454"/>
<path d="M24.1605 396C17.0494 396 11.0111 394.217 6.68352 390.846C2.3197 387.439 0 382.662 0 377.037C0 371.412 2.28339 366.635 6.61096 363.228C10.8878 359.857 16.8609 358.074 23.9068 358.074C29.8002 358.074 35.3092 359.452 38.6147 361.742L39.0642 362.054V368.397L37.3027 366.882C34.3814 364.359 29.5174 362.916 23.943 362.916C12.5406 362.916 5.1757 368.462 5.1757 377.03C5.1757 385.598 12.642 391.151 24.1895 391.151C29.5536 391.151 34.3307 389.708 37.3027 387.171L39.0569 385.685V392.006L38.6075 392.325C35.244 394.659 29.9741 395.993 24.1388 395.993H24.1605V396ZM23.9068 358.835C17.0349 358.835 11.2213 360.561 7.0749 363.83C2.94305 367.092 0.746655 371.666 0.746655 377.059C0.746655 382.452 2.95753 387.019 7.14737 390.288C11.33 393.557 17.2161 395.283 24.1605 395.283C29.8364 395.283 34.9541 394 38.1943 391.745L38.3248 391.658V387.331L37.8029 387.78C34.6931 390.419 29.7421 391.926 24.2112 391.926C12.2071 391.926 4.45082 386.091 4.45082 377.073C4.45082 368.056 12.1056 362.221 23.9575 362.221C29.7059 362.221 34.7511 363.736 37.8029 366.367L38.3248 366.824V362.489L38.1943 362.402C34.9976 360.191 29.6624 358.864 23.9068 358.864V358.843V358.835ZM24.1605 394.645C10.3224 394.645 1.39181 387.737 1.39181 377.059C1.39181 366.381 10.2355 359.466 23.9068 359.466C29.3217 359.466 34.4104 360.669 37.5274 362.684L37.7014 362.793V365.425L37.1143 365.026C33.8813 362.8 29.213 361.575 23.9648 361.575C11.7287 361.575 3.82017 367.657 3.82017 377.059C3.82017 386.461 11.8302 392.543 24.2185 392.543C29.2927 392.543 33.8668 391.318 37.1143 389.085L37.7014 388.686V391.318L37.5274 391.426C34.3886 393.47 29.5102 394.645 24.1533 394.645H24.1605ZM23.9068 360.198C10.6777 360.198 2.13121 366.816 2.13121 377.045C2.13121 387.273 10.7719 393.891 24.1533 393.891C29.2637 393.891 33.9103 392.804 36.9403 390.897V390.049C33.6131 392.122 29.1187 393.26 24.204 393.26C11.3662 393.26 3.06635 386.888 3.06635 377.037C3.06635 367.186 11.2648 360.814 23.9575 360.814C29.0462 360.814 33.6276 361.952 36.9475 364.018V363.177C33.9393 361.3 29.0825 360.184 23.9068 360.184V360.198Z" fill="#334454"/>
<path d="M46.4453 359.639H49.5043V375.702H83.0376V359.639H86.0966V394.455H83.0376V378.391H49.5043V394.455H46.4453V359.639Z" fill="#334454"/>
<path d="M86.4794 394.822H82.6737V378.758H49.8799V394.822H46.0742V359.273H49.8799V375.337H82.6737V359.273H86.4794V394.822ZM83.4204 394.083H85.7327V360.006H83.4204V376.069H49.1405V360.006H46.8281V394.083H49.1405V378.019H83.4204V394.083Z" fill="#334454"/>
<path d="M86.7987 395.13H82.3624V379.067H50.2136V395.13H45.7773V358.951H50.2136V375.015H82.3624V358.951H86.7987V395.13ZM83.7324 393.767H85.4142V360.321H83.7324V376.385H48.8147V360.321H47.1329V393.767H48.8147V377.704H83.7324V393.767Z" fill="#334454"/>
<path d="M87.1731 395.497H81.983V379.433H50.5808V395.497H45.3906V358.578H50.5808V374.642H81.983V358.578H87.1731V395.497ZM82.7223 394.757H86.4193V359.318H82.7223V375.381H49.8198V359.318H46.13V394.757H49.8198V378.694H82.7223V394.757ZM85.7814 394.127H83.353V378.063H49.1819V394.127H46.7534V359.941H49.1819V376.004H83.353V359.941H85.7814V394.127ZM84.0996 393.387H85.0347V360.673H84.0996V376.737H48.4425V360.673H47.5073V393.387H48.4425V377.324H84.0996V393.387Z" fill="#334454"/>
<path d="M111.364 359.639H120.548L138.163 394.455H134.901L130.334 385.452H101.52L96.9534 394.455H93.7422L111.357 359.639H111.364ZM129.131 382.857L118.736 362.422H113.111L102.716 382.857H129.131Z" fill="#334454"/>
<path d="M138.772 394.822H134.677L130.11 385.819H101.752L97.1855 394.822H93.1406L111.132 359.273H120.78L138.772 394.822ZM135.126 394.083H137.554L120.309 360.006H111.589L94.3439 394.083H96.7215L101.288 385.079H130.559L135.126 394.083ZM129.733 383.224H102.122L112.887 362.035H118.961L129.726 383.224H129.733ZM103.332 382.484H128.53L118.519 362.782H113.358L103.347 382.484H103.34H103.332Z" fill="#334454"/>
<path d="M139.282 395.13H134.476L129.909 386.127H101.95L97.3836 395.13H92.6211L110.932 358.951H120.971L139.282 395.13ZM135.324 393.767H137.042L120.116 360.321H111.787L94.861 393.767H96.5282L101.095 384.764H130.757L135.324 393.767ZM130.243 383.547H101.595L112.686 361.735H119.159L130.25 383.547H130.243ZM103.842 382.184H128.01L118.311 363.112H113.541L103.842 382.184Z" fill="#334454"/>
<path d="M139.885 395.496H134.253L129.686 386.493H102.191L97.6244 395.496H92.0428L110.73 358.578H121.227L139.914 395.496H139.907H139.885ZM134.702 394.757H138.675L120.734 359.317H111.158L93.2171 394.757H97.1387L101.705 385.754H130.128L134.695 394.757H134.702ZM137.638 394.126H135.079L130.512 385.123H101.307L96.74 394.126H94.2319L111.528 359.941H120.321L137.616 394.126H137.638ZM135.543 393.387H136.428L119.878 360.673H111.999L95.4497 393.387H96.2834L100.85 384.384H130.976L135.543 393.387ZM130.846 383.905H100.995L112.456 361.354H119.385L130.846 383.905ZM102.198 383.166H129.635L118.929 362.086H112.912L102.206 383.166H102.198ZM128.599 382.535H103.22L113.289 362.724H118.523L128.592 382.535H128.599ZM104.438 381.796H127.388L118.073 363.464H113.753L104.438 381.796Z" fill="#334454"/>
<path d="M145.742 359.639H151.367L167.931 390.178H169.794L186.706 359.639H192.331V394.455H189.424V362.77H188.119L171.106 393.607H166.59L149.976 362.77H148.671V394.455H145.764V359.639H145.757H145.742Z" fill="#334454"/>
<path d="M192.707 394.822H189.053V363.137H188.336L171.323 393.974H166.364L149.75 363.137H149.032V394.822H145.379V359.273H151.598L168.162 389.813H169.583L186.494 359.273H192.714V394.822H192.707ZM189.8 394.083H191.96V360.006H186.929L170.018 390.545H167.713L151.149 360.006H146.118V394.083H148.286V362.398H150.185L166.799 393.234H170.873L187.886 362.398H189.785V394.083H189.793H189.8Z" fill="#334454"/>
<path d="M193.012 395.13H188.713V363.445H188.51L171.497 394.282H166.155L149.541 363.445H149.338V395.13H145.039V358.951H151.759L168.322 389.491H169.359L186.271 358.951H192.99V395.13H192.997H193.012ZM190.105 393.767H191.635V360.321H187.104L170.193 390.861H167.518L150.954 360.321H146.438V393.767H147.968V362.083H150.374L166.989 392.919H170.678L187.691 362.083H190.098V393.767H190.105Z" fill="#334454"/>
<path d="M193.388 395.497H188.35V364.508L171.721 394.648H165.937L149.714 364.537V395.497H144.676V358.578H151.99L168.554 389.118H169.148L186.06 358.578H193.374V395.497H193.395H193.388ZM189.104 394.757H192.649V359.318H186.523L169.612 389.857H168.133L151.569 359.318H145.444V394.757H148.989V363.072H149.786L166.401 393.909H171.301L188.314 363.072H189.119V394.757H189.104ZM192.011 394.127H189.735V362.442H187.923L170.909 393.278H166.77L150.156 362.442H148.344V394.127H146.068V359.941H151.178L167.742 390.48H169.974L186.886 359.941H192.011V394.127ZM190.481 393.387H191.264V360.673H187.328L170.417 391.213H167.299L150.736 360.673H146.814V393.387H147.597V361.702H150.605L167.22 392.539H170.467L187.48 361.702H190.481V393.387Z" fill="#334454"/>
<path d="M202.375 359.636H237.01V362.318H205.434V375.75H234.002V378.331H205.434V391.763H237.01V394.445H202.375V359.629V359.636Z" fill="#334454"/>
<path d="M237.375 394.822H202V359.273H237.375V362.695H205.798V375.388H234.366V378.715H205.798V391.408H237.375V394.829V394.822ZM202.739 394.083H236.628V392.14H205.052V377.976H233.62V376.134H205.052V361.97H236.628V360.027H202.739V394.104V394.083Z" fill="#334454"/>
<path d="M237.703 395.13H201.684V358.951H237.703V363.01H206.127V375.073H234.695V379.03H206.127V391.093H237.703V395.152V395.13ZM203.061 393.767H236.319V392.448H204.743V377.653H233.31V376.435H204.743V361.64H236.319V360.321H203.061V393.767Z" fill="#334454"/>
<path d="M238.075 395.497H201.309V358.578H238.075V363.377H206.499V374.7H235.067V379.397H206.499V390.72H238.075V395.511V395.489V395.497ZM202.055 394.757H237.321V391.444H205.745V378.643H234.313V375.424H205.745V362.623H237.321V359.31H202.055V394.75V394.757ZM236.698 394.127H202.7V359.941H236.698V361.992H205.122V376.048H233.689V378.005H205.122V392.061H236.698V394.112V394.127ZM203.432 393.402H235.944V392.822H204.368V377.287H232.935V376.809H204.368V361.275H235.944V360.695H203.432V393.402Z" fill="#334454"/>
<path d="M245.332 359.641C254.466 359.641 259.185 359.344 268.427 359.344C278.365 359.344 285.897 364.469 285.897 371.08C285.897 376.756 280.17 381.475 272.697 382.366L285.346 394.45H281.076L268.934 382.518H248.355V394.45H245.347V359.634H245.339L245.332 359.641ZM269.985 379.938C277.56 379.938 282.838 375.559 282.838 371.138C282.838 366.716 277.263 362.084 268.478 362.084C260.294 362.084 255.024 362.381 248.348 362.381V379.887C251.907 379.887 262.758 379.938 269.978 379.938H269.985Z" fill="#334454"/>
<path d="M286.262 394.821H280.92L280.811 394.712L268.778 382.874H248.728V394.806H244.973V359.258H245.342C249.887 359.258 253.41 359.178 256.81 359.105C260.239 359.033 263.791 358.953 268.43 358.953C278.6 358.953 286.269 364.158 286.269 371.059C286.269 376.684 280.949 381.461 273.504 382.613L286.262 394.806V394.821ZM281.231 394.096H284.421L271.873 382.099L272.649 382.012C279.985 381.135 285.516 376.437 285.516 371.088C285.516 364.607 278.172 359.722 268.423 359.722C263.791 359.722 260.253 359.801 256.825 359.874C253.512 359.946 250.09 360.011 245.705 360.026V394.103H247.966V382.171H269.075L269.184 382.28L281.217 394.117H281.224L281.231 394.096ZM269.981 380.301C265.733 380.301 260.239 380.279 255.701 380.272C252.519 380.265 249.815 380.25 248.336 380.25H247.966V362.005H248.336C251.497 362.005 254.345 361.932 257.339 361.867C260.688 361.787 264.16 361.708 268.459 361.708C277.672 361.708 283.189 366.492 283.189 371.131C283.189 375.77 278.136 380.301 269.967 380.301H269.974H269.981ZM248.72 379.511C250.25 379.511 252.772 379.511 255.715 379.533C260.246 379.54 265.741 379.562 269.981 379.562C276.005 379.562 282.457 376.169 282.457 371.124C282.457 366.854 277.223 362.44 268.473 362.44C264.175 362.44 260.717 362.52 257.368 362.599C254.483 362.672 251.743 362.73 248.713 362.737V379.504H248.72V379.511Z" fill="#334454"/>
<path d="M287.044 395.13H280.788L268.646 383.198H249.038V395.13H244.652V358.951H245.348C249.893 358.951 253.409 358.871 256.809 358.799C260.237 358.726 263.804 358.646 268.429 358.646C278.78 358.646 286.587 363.989 286.587 371.071C286.587 376.696 281.448 381.48 274.184 382.829L287.066 395.13H287.058H287.044ZM281.361 393.76H283.637L271.169 381.857L272.604 381.691C279.788 380.835 285.203 376.268 285.203 371.086C285.203 364.881 277.838 360.031 268.421 360.031C263.804 360.031 260.252 360.111 256.83 360.183C253.597 360.256 250.263 360.321 246.022 360.335V393.782H247.653V381.85H269.204L281.346 393.782H281.353L281.361 393.76ZM269.98 380.603C265.732 380.603 260.237 380.582 255.7 380.574C252.517 380.574 249.814 380.553 248.342 380.553H247.646V361.677H248.342C251.503 361.677 254.337 361.604 257.345 361.539C260.694 361.459 264.166 361.379 268.472 361.379C275.866 361.379 283.514 365.018 283.514 371.122C283.514 375.689 278.331 380.611 269.973 380.611L269.98 380.603ZM249.031 379.175C250.582 379.175 252.967 379.175 255.7 379.197C260.23 379.204 265.725 379.226 269.965 379.226C275.844 379.226 282.129 375.964 282.129 371.107C282.129 366.99 277.019 362.742 268.465 362.742C264.181 362.742 260.716 362.822 257.367 362.902C254.569 362.974 251.923 363.032 249.023 363.039V379.183L249.031 379.175Z" fill="#334454"/>
<path d="M287.978 395.495H280.642L280.533 395.386L268.5 383.549H249.421V395.481H244.281V358.562H245.347C249.878 358.562 253.379 358.482 256.757 358.41H256.836C260.265 358.33 263.81 358.258 268.427 358.258C278.996 358.258 286.963 363.759 286.963 371.052C286.963 376.626 282.063 381.468 274.951 383.027L287.978 395.481V395.495ZM280.953 394.763H286.136L273.407 382.599L274.125 382.469C281.251 381.149 286.231 376.467 286.231 371.074C286.231 364.202 278.583 359.019 268.442 359.019C263.824 359.019 260.28 359.098 256.858 359.171L256.771 358.801V359.171C253.393 359.243 249.878 359.323 245.354 359.323H245.035V394.763H248.674V382.831H268.804L268.913 382.94L280.946 394.777H280.953V394.763ZM284.563 394.125H281.214L281.106 394.016L269.073 382.179H248.044V394.11H245.666V359.925H246.036C250.233 359.925 253.553 359.845 256.764 359.773H256.836C260.294 359.693 263.832 359.62 268.435 359.62C278.054 359.62 285.593 364.637 285.593 371.045C285.593 376.416 280.04 381.142 272.675 382.019L272.008 382.099L284.578 394.103H284.571L284.563 394.125ZM281.512 393.4H282.708L270.341 381.584L272.566 381.316C279.562 380.483 284.832 376.075 284.832 371.066C284.832 365.071 277.626 360.381 268.42 360.381C263.824 360.381 260.294 360.461 256.873 360.534H256.764C253.647 360.606 250.428 360.671 246.398 360.686V393.393H247.282V381.461H269.37L269.478 381.57L281.512 393.407V393.4ZM269.979 380.99C265.934 380.99 260.773 380.968 256.373 380.961H255.575C252.444 380.954 249.791 380.939 248.341 380.939H247.275V361.331H248.341C251.48 361.331 254.307 361.259 257.293 361.193C260.671 361.114 264.136 361.034 268.464 361.034C276.039 361.034 283.882 364.811 283.882 371.146C283.882 375.88 278.561 381.004 269.964 381.004H269.971L269.979 380.99ZM248.022 380.193H248.341C249.791 380.193 252.444 380.193 255.575 380.214H256.373C260.773 380.236 265.941 380.243 269.979 380.243C278.105 380.243 283.15 375.51 283.15 371.124C283.15 365.26 275.691 361.752 268.478 361.752C264.151 361.752 260.7 361.831 257.358 361.911C254.328 361.983 251.501 362.049 248.355 362.049H248.036V380.185H248.029L248.022 380.193ZM269.979 379.613C265.731 379.613 260.236 379.591 255.713 379.584C252.973 379.584 250.588 379.562 249.044 379.562H248.674V362.687H249.044C251.951 362.679 254.589 362.614 257.373 362.549C260.715 362.469 264.165 362.389 268.478 362.389C277.264 362.389 282.512 366.833 282.512 371.124C282.512 376.199 276.031 379.605 269.971 379.605L269.979 379.613ZM249.399 378.844C250.95 378.844 253.176 378.844 255.698 378.866C260.229 378.873 265.716 378.895 269.964 378.895C275.662 378.895 281.758 375.785 281.758 371.146C281.758 367.217 276.785 363.151 268.464 363.151C264.158 363.151 260.707 363.23 257.373 363.31C254.698 363.368 252.161 363.433 249.392 363.448V378.852L249.399 378.844Z" fill="#334454"/>
<path d="M294.539 359.639H297.598V394.455H294.539V359.639Z" fill="#334454"/>
<path d="M297.962 394.822H294.156V359.273H297.962V394.822ZM294.903 394.083H297.215V360.006H294.903V394.083Z" fill="#334454"/>
<path d="M298.292 395.13H293.855V358.951H298.292V395.13ZM295.226 393.767H296.907V360.321H295.226V393.767Z" fill="#334454"/>
<path d="M298.66 395.496H293.477V358.578H298.66V395.496ZM294.209 394.757H297.899V359.317H294.209V394.757ZM297.275 394.126H294.847V359.941H297.275V394.126ZM295.586 393.387H296.521V360.673H295.586V393.387Z" fill="#334454"/>
<path d="M81.5159 0.217466L141.326 0C140.645 12.5913 136.042 47.2843 101.392 87.1894C71.179 121.984 33.8111 134.495 19.9223 138.954C11.9051 141.527 5.06212 143.078 0.234375 144.02L0.321358 117.084C10.3393 112.836 33.9343 100.752 54.5718 73.3948C78.1959 42.0724 81.052 10.3151 81.5159 0.224715V0.217466Z" fill="#334454"/>
<path d="M163.677 0.1875L226.329 0.259989C221.095 22.9779 204.698 67.8122 155.29 111.073C118.618 143.193 79.2565 155.32 62.3594 160.337C37.5175 167.716 15.8217 170.166 0.214844 170.956L0.294571 151.109C16.8365 149.188 60.8081 141.751 102.011 105.564C150.346 63.1222 161.205 15.3014 163.669 0.194749L163.677 0.1875Z" fill="#334454"/>
<path d="M258.156 0.363281H298.576V54.6355C276.257 83.0583 239.193 122.151 184.414 154.431C126.568 188.515 75.4921 199.134 62.7196 201.621C37.5225 206.507 15.9137 207.935 0.234375 208.232L0.256143 179.497C30.9551 177.656 93.5707 169.537 153.236 127.661C199.23 95.3814 225.95 55.3387 235.67 40.493C245.985 24.7412 253.271 10.6929 258.156 0.363281Z" fill="#334454"/>
<path d="M0.234375 239.401V215.328C60.226 214.53 169.213 203.186 260.432 127.725C274.611 116.004 287.601 103.768 298.605 91.459L298.576 172.255C280.432 185.412 256.032 200.547 226.631 213.827C194.678 228.267 169.459 234.595 162.942 236.183C138.862 242.003 120.413 243.576 108.989 244.497C81.4072 246.73 55.1517 244.888 41.8646 243.787" fill="#334454"/>
<path d="M0.234375 247.035C11.1512 248.898 27.2509 251.319 46.8301 253.044C87.0396 256.596 143.312 261.562 206.624 243.425C228.972 237.025 262.368 225.042 298.576 201.193L298.634 267.723C285.985 273.08 270.791 277.923 253.56 282.221C248.124 283.577 226.638 289.209 196.229 293.37C172.591 296.603 148.234 299.937 115.636 298.212C100.414 297.415 78.4207 295.255 52.6219 289.079C31.9047 284.135 14.3044 277.93 0.248887 272.131V247.035H0.241631H0.234375Z" fill="#334454"/>
<path d="M298.624 334.051H0.0507812V280.445C11.8157 285.288 24.2185 290.956 37.2592 294.9C138.519 325.548 233.131 311.101 298.624 292.507V334.051Z" fill="#334454"/>
</svg>
