<svg width="118" height="66" viewBox="0 0 118 66" fill="none" xmlns="http://www.w3.org/2000/svg">
<path d="M49.9642 0.0286045L57.8838 0C57.7939 1.68971 57.1871 6.34407 52.5959 11.6911C48.5952 16.3577 43.6505 18.0351 41.8116 18.6338C40.747 18.9811 39.8439 19.1875 39.2023 19.3101L39.2125 15.6957C40.5386 15.1257 43.6607 13.5075 46.3966 9.83791C49.5249 5.63917 49.9029 1.38119 49.9642 0.0286045Z" fill="white"/>
<path d="M60.8383 0.0296311L69.1319 0.039847C68.4413 3.08827 66.2672 9.09726 59.7309 14.8978C54.8761 19.2049 49.6658 20.8272 47.4305 21.5055C44.1429 22.4964 41.2721 22.8254 39.2043 22.9255L39.2145 20.2632C41.4049 20.0058 47.2241 19.0108 52.6796 14.1541C59.077 8.46387 60.5155 2.05442 60.8383 0.0275879V0.0296311Z" fill="white"/>
<path d="M73.3449 0.0512986H78.6942V7.3291C75.7396 11.1396 70.8358 16.3804 63.5863 20.7099C55.9282 25.2805 49.1691 26.7066 47.4794 27.0376C44.1407 27.6914 41.2822 27.8814 39.2083 27.9264V24.073C43.2764 23.8278 51.5638 22.7367 59.461 17.1241C65.5458 12.7946 69.0848 7.42309 70.374 5.43712C71.7389 3.32856 72.7034 1.4427 73.3511 0.0553849L73.3449 0.0492554V0.0512986Z" fill="white"/>
<path d="M39.2043 32.1051V28.8769C47.1465 28.7707 61.5698 27.2485 73.6454 17.1286C75.5232 15.5574 77.2395 13.9168 78.7005 12.2679V23.1049C76.2935 24.8723 73.0652 26.8971 69.1768 28.6828C64.9473 30.6177 61.6086 31.4697 60.7443 31.6822C57.5568 32.4647 55.1152 32.6731 53.6052 32.7957C49.9539 33.092 46.4783 32.8468 44.7211 32.7017" fill="white"/>
<path d="M39.2044 33.1243C40.6469 33.3756 42.7821 33.7005 45.373 33.9293C50.6956 34.4054 58.1474 35.0715 66.5227 32.6381C69.4814 31.782 73.9009 30.1719 78.6944 26.9764V35.899C77.0271 36.6141 75.0165 37.2699 72.7363 37.84C72.017 38.0198 69.1749 38.7737 65.1456 39.3336C62.0194 39.7647 58.7931 40.2121 54.4777 39.9833C52.461 39.877 49.5514 39.5869 46.1351 38.7574C43.393 38.0913 41.0637 37.2638 39.2023 36.4854V33.1243H39.2044Z" fill="white"/>
<path d="M78.7003 44.7934H39.1816V37.6055C40.7366 38.2552 42.3814 39.0153 44.1079 39.5465C57.5117 43.6574 70.0348 41.7163 78.7064 39.2278V44.7995L78.7003 44.7934Z" fill="white"/>
<path d="M9.44514 51.1537C11.3924 51.1537 13.6318 51.5706 15.0191 52.5472V53.9406C13.6318 52.725 11.4312 52.2489 9.46761 52.2489C4.70683 52.2489 1.63173 54.6578 1.63173 58.3212C1.63173 61.9846 4.74565 64.3935 9.56773 64.3935C11.5313 64.3935 13.6318 63.893 15.0191 62.6998V64.0932C13.6318 65.0698 11.5068 65.4867 9.54526 65.4867C3.99373 65.4867 0.420074 62.618 0.420074 58.3212C0.420074 54.0244 3.94878 51.1558 9.44514 51.1558V51.1537Z" fill="white"/>
<path d="M9.5447 65.6353C3.91552 65.6353 0.270355 62.7647 0.270355 58.3187C0.270355 53.8727 3.87057 51.0021 9.44458 51.0021C11.7228 51.0021 13.8355 51.5353 15.1024 52.4221L15.1637 52.467V54.2589L14.9205 54.0485C13.715 52.9942 11.7289 52.3935 9.46297 52.3935C4.79617 52.3935 1.77624 54.7186 1.77624 58.3167C1.77624 61.9147 4.83499 64.2398 9.56309 64.2398C11.7473 64.2398 13.6986 63.6351 14.9205 62.5849L15.1637 62.3744V64.1683L15.1024 64.2133C13.8192 65.1184 11.7902 65.6333 9.5447 65.6333V65.6353ZM9.44458 51.2983C4.05242 51.2983 0.568671 54.0525 0.568671 58.3207C0.568671 62.5889 4.09125 65.3432 9.54265 65.3432C11.6942 65.3432 13.6292 64.861 14.8674 64.0212V63.016C13.5842 63.9926 11.6717 64.5484 9.559 64.5484C4.64905 64.5484 1.47996 62.1068 1.47996 58.3269C1.47996 54.547 4.61636 52.1054 9.45888 52.1054C11.6493 52.1054 13.5944 52.6611 14.8674 53.6316V52.6264C13.6394 51.7928 11.6206 51.3045 9.44253 51.3045V51.2983H9.44458Z" fill="white"/>
<path d="M9.5451 65.7547C6.76831 65.7547 4.41244 65.056 2.73288 63.7238C1.04107 62.3855 0.150208 60.516 0.150208 58.3114C0.150208 56.1068 1.03494 54.2373 2.70428 52.8991C4.36953 51.573 6.6968 50.8681 9.44498 50.8681C11.7457 50.8681 13.8911 51.4075 15.1743 52.3106L15.2907 52.3944V54.5316L14.8371 54.1372C13.6602 53.1054 11.6966 52.5109 9.46133 52.5109C4.86604 52.5109 1.90128 54.7869 1.90128 58.3114C1.90128 61.8359 4.90895 64.112 9.5594 64.112C11.711 64.112 13.6357 63.5175 14.8351 62.4856L15.2826 62.0974V64.2285L15.1661 64.3122C13.8605 65.2276 11.809 65.7547 9.53693 65.7547H9.54306H9.5451ZM9.44498 51.4218C4.13047 51.4218 0.69167 54.1311 0.69167 58.3155C0.69167 62.5 4.16521 65.2092 9.5451 65.2092C11.6415 65.2092 13.5274 64.7474 14.7493 63.9445V63.2498C13.4498 64.1488 11.5965 64.6596 9.56758 64.6596C4.58612 64.6596 1.36186 62.1669 1.36186 58.3155C1.36186 54.4641 4.54117 51.9714 9.4695 51.9714C11.5761 51.9714 13.462 52.4761 14.7513 53.3812V52.6927C13.5397 51.8979 11.5781 51.428 9.44907 51.428V51.4218H9.44498Z" fill="white"/>
<path d="M9.54405 65.9092C6.73457 65.9092 4.34601 65.1982 2.63784 63.8497C0.913336 62.4848 0 60.5744 0 58.3208C0 56.0672 0.901076 54.1568 2.60924 52.792C4.29493 51.4435 6.66306 50.7263 9.44393 50.7263C11.7712 50.7263 13.9452 51.2759 15.255 52.1974L15.4327 52.3241V54.8658L14.736 54.2549C13.5795 53.2435 11.6568 52.6673 9.46028 52.6673C4.95285 52.6673 2.0453 54.8883 2.0453 58.3188C2.0453 61.7493 4.99372 63.9702 9.5604 63.9702C11.6793 63.9702 13.5631 63.394 14.7421 62.3765L15.4327 61.782V64.3135L15.255 64.4401C13.9268 65.3718 11.8427 65.9112 9.53792 65.9112L9.54405 65.9051V65.9092ZM9.44393 51.0267C6.72844 51.0267 4.42774 51.7152 2.79109 53.0249C1.15444 54.3284 0.292186 56.1612 0.292186 58.3208C0.292186 60.4805 1.1667 62.3071 2.81969 63.6167C4.47269 64.9203 6.79587 65.615 9.54405 65.615C11.7896 65.615 13.8083 65.098 15.0915 64.199L15.1467 64.1602V62.4276L14.9423 62.6054C13.7143 63.6596 11.7569 64.2644 9.56653 64.2644C4.82209 64.2644 1.75924 61.9332 1.75924 58.3188C1.75924 54.7044 4.78326 52.3731 9.46845 52.3731C11.7406 52.3731 13.7327 52.9779 14.9382 54.0322L15.1487 54.2161V52.4794L15.0935 52.4405C13.8328 51.5518 11.7201 51.0246 9.44802 51.0246L9.44393 51.0267ZM9.54405 65.3596C4.07425 65.3596 0.547593 62.5951 0.547593 58.3147C0.547593 54.0342 4.04156 51.2698 9.44598 51.2698C11.5853 51.2698 13.5979 51.752 14.8259 52.557L14.8913 52.602V53.6562L14.6583 53.4948C13.3813 52.606 11.5342 52.1136 9.46028 52.1136C4.62798 52.1136 1.50384 54.545 1.50384 58.3147C1.50384 62.0844 4.6668 64.5157 9.5604 64.5157C11.5628 64.5157 13.3752 64.0213 14.6583 63.1345L14.8913 62.9731V64.0274L14.8259 64.0724C13.5815 64.8937 11.6568 65.3596 9.54405 65.3596ZM9.44393 51.5763C4.21728 51.5763 0.839778 54.2242 0.839778 58.3208C0.839778 62.4174 4.25815 65.0654 9.54405 65.0654C11.5628 65.0654 13.3976 64.6261 14.5991 63.866V63.5268C13.2832 64.3584 11.5076 64.8079 9.56653 64.8079C4.49108 64.8079 1.21165 62.2601 1.21165 58.3126C1.21165 54.3652 4.45226 51.8174 9.46845 51.8174C11.4811 51.8174 13.2893 52.273 14.6011 53.1005V52.7675C13.4119 52.0176 11.4933 51.5681 9.44802 51.5681V51.5742L9.44393 51.5763Z" fill="white"/>
<path d="M18.3488 51.3507H19.5605V57.7847H32.809V51.3507H34.0206V65.2893H32.809V58.8553H19.5605V65.2893H18.3488V51.3507Z" fill="white"/>
<path d="M34.169 65.4338H32.6652V58.9999H19.7089V65.4338H18.205V51.201H19.7089V57.635H32.6652V51.201H34.169V65.4338ZM32.9574 65.1396H33.8748V51.4953H32.9574V57.9292H19.4147V51.4953H18.4972V65.1396H19.4147V58.7056H32.9574V65.1396Z" fill="white"/>
<path d="M34.2921 65.561H32.539V59.127H19.8361V65.561H18.0829V51.0789H19.8361V57.5129H32.539V51.0789H34.2921V65.561ZM33.0804 65.0114H33.7445V51.6224H33.0804V58.0564H19.2844V51.6224H18.6203V65.0114H19.2844V58.5774H33.0804V65.0114Z" fill="white"/>
<path d="M34.4404 65.7077H32.3889V59.2737H19.9802V65.7077H17.9288V50.9253H19.9802V57.3592H32.3889V50.9253H34.4404V65.7077ZM32.6872 65.4134H34.1461V51.2256H32.6872V57.6596H19.686V51.2256H18.2271V65.4134H19.686V58.9795H32.6872V65.4134ZM33.8928 65.1642H32.9365V58.7302H19.4388V65.1642H18.4825V51.481H19.4388V57.915H32.9365V51.481H33.8928V65.1642ZM33.2287 64.8638H33.5985V51.7691H33.2287V58.2031H19.1384V51.7691H18.7686V64.8638H19.1384V58.4299H33.2287V64.8638Z" fill="white"/>
<path d="M43.9954 51.3507H47.6222L54.5836 65.2893H53.2943L51.4921 61.6872H40.1071L38.305 65.2893H37.0341L43.9954 51.3507ZM51.0181 60.6492L46.9152 52.4663H44.6922L40.5893 60.6492H51.0242H51.0181Z" fill="white"/>
<path d="M54.8312 65.4338H53.2109L51.4087 61.8317H40.2056L38.4034 65.4338H36.8056L43.9161 51.201H47.7268L54.8373 65.4338H54.8312ZM53.3927 65.1396H54.3551L47.5429 51.4953H44.0918L37.2796 65.1396H38.2195L40.0217 61.5375H51.5906L53.3927 65.1396ZM51.2575 60.7938H40.3465L44.5986 52.3187H46.9994L51.2514 60.7938H51.2575ZM40.8287 60.4996H50.7835L46.8237 52.6108H44.7824L40.8226 60.4996H40.8287Z" fill="white"/>
<path d="M55.0288 65.5629H53.1327L51.3305 61.9608H40.2827L38.4805 65.5629H36.6007L43.8338 51.0809H47.7998L55.0329 65.5629H55.0288ZM53.4698 65.0133H54.1502L47.4586 51.6244H44.1628L37.4773 65.0133H38.1352L39.9373 61.4112H51.6616L53.4637 65.0133H53.4698ZM51.4634 60.9229H40.1437L44.5224 52.1903H47.0765L51.4552 60.9229H51.4613H51.4634ZM41.0284 60.3732H50.5786L46.7455 52.7358H44.8596L41.0264 60.3732H41.0284Z" fill="white"/>
<path d="M55.2716 65.7077H53.0424L51.2402 62.1055H40.3742L38.572 65.7077H36.3653L43.7476 50.9253H47.8954L55.2777 65.7077H55.2716ZM53.2201 65.4134H54.7914L47.7013 51.2256H43.9192L36.8291 65.4134H38.3779L40.1801 61.8113H51.4118L53.214 65.4134H53.2201ZM54.3868 65.1642H53.3795L51.5773 61.562H40.037L38.2349 65.1642H37.2459L44.0806 51.481H47.5542L54.3889 65.1642H54.3868ZM53.5573 64.8638H53.9067L47.3641 51.7691H44.2502L37.7077 64.8638H38.0387L39.8409 61.2617H51.7408L53.543 64.8638H53.5532H53.5573ZM51.6999 61.0717H39.9042L44.4321 52.047H47.17L51.6999 61.0717ZM40.3864 60.7713H51.2259L46.9964 52.3351H44.618L40.3885 60.7713H40.3864ZM50.8152 60.5221H40.7889L44.7692 52.5905H46.837L50.8173 60.5221H50.8111H50.8152ZM41.2712 60.2279H50.3412L46.6592 52.8888H44.9551L41.2732 60.2279H41.2712Z" fill="white"/>
<path d="M57.5822 51.3507H59.8053L66.3519 63.573H67.0874L73.773 51.3507H75.996V65.2893H74.8457V52.6053H74.3308L67.6064 64.9501H65.8206L59.2577 52.6053H58.7428V65.2893H57.5924V51.3507H57.5822Z" fill="white"/>
<path d="M76.1363 65.4338H74.6938V52.7498H74.4118L67.6875 65.0947H65.7239L59.161 52.7498H58.879V65.4338H57.4365V51.201H59.8925L66.4391 63.4233H66.9969L73.6824 51.201H76.1384V65.4338H76.1363ZM74.986 65.1396H75.8442V51.4953H73.8581L67.1726 63.7176H66.2654L59.7188 51.4953H57.7327V65.1396H58.5889V52.4556H59.3408L65.9058 64.8005H67.5138L74.2382 52.4556H74.9901V65.1396H74.984H74.986Z" fill="white"/>
<path d="M76.2628 65.561H74.5649V52.8769H74.4811L67.7567 65.2218H65.644L59.0811 52.8769H59.0034V65.561H57.3055V51.0789H59.9597L66.5063 63.3012H66.9149L73.6005 51.0789H76.2546V65.561H76.2608H76.2628ZM75.1125 65.0114H75.7152V51.6224H73.9294L67.2439 63.8447H66.1875L59.6409 51.6224H57.8551V65.0114H58.4579V52.3273H59.408L65.9709 64.6722H67.4298L74.1542 52.3273H75.1063V65.0114H75.1125Z" fill="white"/>
<path d="M76.4114 65.7076H74.4213V53.3075L67.8522 65.3705H65.5679L59.1582 53.3198V65.7096H57.1681V50.9272H60.0593L66.6059 63.1495H66.8388L73.5243 50.9272H76.4155V65.7096H76.4094L76.4114 65.7076ZM74.7135 65.4134H76.1131V51.2256H73.6919L67.0063 63.4478H66.4199L59.8733 51.2256H57.4521V65.4134H58.8517V52.7293H59.1664L65.7313 65.0742H67.6663L74.3907 52.7293H74.7053V65.4134H74.7155H74.7135ZM75.8639 65.1641H74.9628V52.4801H74.2497L67.5253 64.8249H65.8887L59.3257 52.4801H58.6065V65.1641H57.7054V51.4809H59.7283L66.2748 63.7032H67.1596L73.8451 51.4809H75.8679V65.1641H75.8618H75.8639ZM75.2611 64.8638H75.5717V51.769H74.0188L67.3333 63.9913H66.0991L59.5525 51.769H58.0038V64.8638H58.3143V52.1797H59.5035L66.0664 64.5246H67.3496L74.074 52.1797H75.257V64.8638H75.2631H75.2611Z" fill="white"/>
<path d="M79.9569 51.3507H93.6426V52.4275H81.1665V57.8011H92.4535V58.839H81.1665V64.2125H93.6426V65.2893H79.9569V51.3507Z" fill="white"/>
<path d="M93.7906 65.4338H79.8106V51.201H93.7906V52.572H81.3145V57.6514H92.6014V58.9835H81.3145V64.0629H93.7906V65.4338ZM80.1049 65.1396H93.4984V64.3632H81.0223V58.6893H92.3092V57.9517H81.0223V52.2798H93.4984V51.5034H80.1049V65.1478V65.1417V65.1396Z" fill="white"/>
<path d="M93.9148 65.5629H79.6855V51.0809H93.9148V52.7011H81.4387V57.5312H92.7256V59.1126H81.4387V63.9427H93.9148V65.5629ZM80.2331 65.0133H93.3713V64.4862H80.8952V58.563H92.1821V58.0747H80.8952V52.1515H93.3713V51.6244H80.2331V65.0133Z" fill="white"/>
<path d="M94.0629 65.7077H79.5353V50.9253H94.0629V52.8459H81.5868V57.3817H92.8737V59.2573H81.5868V63.7932H94.0629V65.7138V65.7077ZM79.8337 65.4134H93.7687V64.0874H81.2946V58.9631H92.5815V57.6759H81.2946V52.5516H93.7687V51.2256H79.8337V65.4134ZM93.5153 65.1642H80.0788V51.481H93.5153V52.3024H81.0392V57.9313H92.3261V58.7139H81.0392V64.3428H93.5153V65.1642ZM80.3772 64.8638H93.2231V64.6309H80.747V58.4135H92.0339V58.2194H80.747V52.002H93.2231V51.7691H80.3772V64.8638Z" fill="white"/>
<path d="M96.9377 51.3512C100.548 51.3512 102.412 51.2286 106.063 51.2286C109.988 51.2286 112.963 53.2779 112.963 55.9238C112.963 58.1938 110.701 60.0878 107.749 60.4413L112.746 65.2816H111.061L106.261 60.5026H98.1269V65.2816H96.9377V51.343V51.3492V51.3512ZM106.676 59.4728C109.673 59.4728 111.751 57.7198 111.751 55.9483C111.751 54.1769 109.551 52.3238 106.077 52.3238C102.843 52.3238 100.763 52.4463 98.1248 52.4463V59.4565C99.5347 59.4565 103.815 59.479 106.674 59.479V59.4728H106.676Z" fill="white"/>
<path d="M113.106 65.4343H110.994L110.949 65.3893L106.194 60.6553H98.2704V65.4343H96.789V51.2015H96.9382C98.7362 51.2015 100.13 51.1729 101.472 51.1402C102.827 51.1137 104.233 51.0789 106.061 51.0789C110.082 51.0789 113.113 53.1609 113.113 55.9253C113.113 58.179 111.012 60.0893 108.07 60.5491L113.113 65.4282L113.106 65.4343ZM111.116 65.1401H112.377L107.416 60.3386L107.727 60.2998C110.624 59.9504 112.814 58.0686 112.814 55.9253C112.814 53.3325 109.911 51.3731 106.057 51.3731C104.226 51.3731 102.829 51.4058 101.472 51.4344C100.162 51.463 98.8118 51.4896 97.0812 51.4957V65.1401H97.9761V60.3611H106.315L106.36 60.406L111.114 65.1401H111.116ZM106.676 59.6235C105.001 59.6235 102.827 59.6174 101.035 59.6133C99.7803 59.6133 98.7076 59.6071 98.1253 59.6071H97.9761V52.3028H98.1253C99.3758 52.3028 100.498 52.2742 101.687 52.2476C103.009 52.2149 104.38 52.1822 106.084 52.1822C109.727 52.1822 111.901 54.0967 111.901 55.9519C111.901 57.8071 109.905 59.6214 106.674 59.6214V59.6276L106.676 59.6235ZM98.2704 59.3068C98.8731 59.3068 99.8743 59.3068 101.031 59.3129C102.823 59.3129 104.991 59.3231 106.672 59.3231C109.055 59.3231 111.605 57.9685 111.605 55.9478C111.605 54.2377 109.537 52.4724 106.08 52.4724C104.382 52.4724 103.017 52.5051 101.695 52.5398C100.551 52.5684 99.4718 52.595 98.2765 52.595V59.3068H98.2704Z" fill="white"/>
<path d="M113.417 65.5654H110.944L106.145 60.7864H98.3967V65.5654H96.66V51.0833H96.9317C98.7298 51.0833 100.117 51.0547 101.462 51.022C102.816 50.9955 104.22 50.9607 106.057 50.9607C110.15 50.9607 113.229 53.0979 113.229 55.9338C113.229 58.1874 111.2 60.1019 108.323 60.6413L113.411 65.5654H113.417ZM111.171 65.0158H112.066L107.14 60.247L107.71 60.1795C110.546 59.8363 112.687 58.0097 112.687 55.9338C112.687 53.4534 109.774 51.5103 106.057 51.5103C104.232 51.5103 102.829 51.5389 101.472 51.5716C100.195 51.6002 98.8728 51.6268 97.2035 51.6329V65.0219H97.8512V60.2429H106.367L111.167 65.0219L111.173 65.0158H111.171ZM106.676 59.7484C105.001 59.7484 102.827 59.7423 101.035 59.7382C99.78 59.7382 98.7073 59.7321 98.125 59.7321H97.8532V52.1764H98.125C99.3755 52.1764 100.497 52.1478 101.68 52.1212C103.008 52.0886 104.373 52.0538 106.077 52.0538C108.997 52.0538 112.021 53.5127 112.021 55.9502C112.021 57.7768 109.976 59.7464 106.674 59.7464L106.676 59.7484ZM98.3988 59.1825C99.0118 59.1825 99.9537 59.1825 101.037 59.1886C102.829 59.1947 104.996 59.1988 106.678 59.1988C109.001 59.1988 111.484 57.8953 111.484 55.9461C111.484 54.2972 109.465 52.5994 106.081 52.5994C104.383 52.5994 103.019 52.632 101.697 52.6668C100.591 52.6933 99.545 52.7158 98.4008 52.7219V59.1825H98.3988Z" fill="white"/>
<path d="M113.783 65.7062H110.886L110.841 65.6612L106.086 60.9272H98.5486V65.7062H96.5196V50.9238H96.9405C98.7263 50.9238 100.114 50.8952 101.452 50.8625H101.485C102.839 50.8359 104.239 50.8012 106.068 50.8012C110.242 50.8012 113.389 53.0058 113.389 55.9193C113.389 58.1505 111.454 60.0874 108.644 60.7147L113.793 65.7L113.783 65.7062ZM111.006 65.412H113.052L108.019 60.5431L108.301 60.494C111.117 59.9669 113.084 58.0912 113.084 55.9316C113.084 53.1774 110.064 51.1077 106.055 51.1077C104.231 51.1077 102.831 51.1363 101.483 51.169L101.45 51.0198V51.169C100.112 51.1976 98.7284 51.2302 96.9385 51.2302H96.8118V65.4181H98.2543V60.6391H106.211L106.256 60.684L111.01 65.4181L111.004 65.412H111.006ZM112.433 65.1627H111.111L111.066 65.1177L106.311 60.3837H97.9989V65.1627H97.059V51.4795H97.2082C98.8673 51.4795 100.177 51.4468 101.444 51.4182H101.472C102.839 51.3896 104.237 51.3569 106.058 51.3569C109.856 51.3569 112.837 53.3654 112.837 55.9316C112.837 58.0851 110.643 59.973 107.733 60.3285L107.474 60.3612L112.439 65.1688L112.433 65.1627ZM111.233 64.8623H111.703L106.82 60.1324L107.698 60.0261C110.463 59.6931 112.543 57.9278 112.543 55.9234C112.543 53.5247 109.695 51.643 106.062 51.643C104.243 51.643 102.85 51.6716 101.499 51.7043H101.454C100.22 51.7308 98.9491 51.7594 97.3553 51.7656V64.8603H97.7047V60.0813H106.431L106.476 60.1262L111.231 64.8603L111.233 64.8623ZM106.677 59.8954C105.079 59.8954 103.038 59.8892 101.301 59.8852H100.986C99.748 59.8852 98.7018 59.8749 98.1277 59.8749H97.7068V52.0271H98.1277C99.372 52.0271 100.484 51.9985 101.667 51.9719C102.999 51.9392 104.37 51.9045 106.08 51.9045C109.077 51.9045 112.173 53.4205 112.173 55.95C112.173 57.8481 110.073 59.8974 106.677 59.8974V59.8954ZM98.001 59.5787H98.1277C98.7018 59.5787 99.7541 59.5787 100.986 59.5848H101.301C103.038 59.5909 105.077 59.595 106.677 59.595C109.889 59.595 111.881 57.703 111.881 55.9479C111.881 53.6003 108.932 52.2008 106.086 52.2008C104.378 52.2008 103.011 52.2334 101.689 52.2682C100.494 52.2947 99.3781 52.3233 98.1277 52.3233H98.001V59.5848V59.5787ZM106.677 59.3458C105.001 59.3458 102.827 59.3396 101.035 59.3355C99.9523 59.3355 99.0124 59.3294 98.3974 59.3294H98.2482V52.5747H98.3974C99.5477 52.5747 100.588 52.5461 101.693 52.5195C103.009 52.4868 104.376 52.4521 106.078 52.4521C109.552 52.4521 111.623 54.2276 111.623 55.95C111.623 57.9809 109.063 59.3478 106.668 59.3478H106.675L106.677 59.3458ZM98.5486 59.0352C99.1616 59.0352 100.042 59.0352 101.037 59.0413C102.829 59.0474 104.997 59.0515 106.679 59.0515C108.93 59.0515 111.335 57.8031 111.335 55.9479C111.335 54.3706 109.372 52.7442 106.082 52.7442C104.378 52.7442 103.019 52.7769 101.703 52.8117C100.647 52.8382 99.6458 52.8607 98.5506 52.8668V59.0331L98.5486 59.0352Z" fill="white"/>
<path d="M116.376 51.3507H117.588V65.2893H116.376V51.3507Z" fill="white"/>
<path d="M117.731 65.4338H116.227V51.201H117.731V65.4338ZM116.519 65.1396H117.436V51.4953H116.519V65.1396Z" fill="white"/>
<path d="M117.858 65.561H116.105V51.0789H117.858V65.561ZM116.646 65.0114H117.31V51.6224H116.646V65.0114Z" fill="white"/>
<path d="M118 65.7077H115.948V50.9253H118V65.7077ZM116.247 65.4134H117.708V51.2256H116.247V65.4134ZM117.458 65.1642H116.502V51.481H117.458V65.1642ZM116.794 64.8638H117.164V51.7691H116.794V64.8638Z" fill="white"/>
</svg>
