<svg width="57" height="75" viewBox="0 0 57 75" fill="none" xmlns="http://www.w3.org/2000/svg">
<g clip-path="url(#clip0_1512_11375)">
<path d="M4.48729 67.4219C5.41121 67.4219 6.47664 67.6178 7.13522 68.0751V68.7283C6.47664 68.1595 5.43026 67.9349 4.49681 67.9349C2.23668 67.9349 0.773924 69.0658 0.773924 70.7832C0.773924 72.5006 2.25301 73.6314 4.54444 73.6314C5.47788 73.6314 6.47664 73.3974 7.13522 72.8381V73.4913C6.47664 73.9485 5.46699 74.1445 4.53491 74.1445C1.89651 74.1445 0.199707 72.8 0.199707 70.7832C0.199707 68.7664 1.87746 67.4219 4.48729 67.4219Z" fill="#324453"/>
<path d="M4.53546 74.2138C1.85895 74.2138 0.130859 72.8666 0.130859 70.7831C0.130859 68.6997 1.84263 67.3524 4.48784 67.3524C5.5696 67.3524 6.57516 67.6015 7.17523 68.0192L7.20516 68.0396V68.882L7.0895 68.7827C6.51665 68.2887 5.57232 68.0056 4.496 68.0056C2.27669 68.0056 0.843869 69.097 0.843869 70.7845C0.843869 72.4719 2.29574 73.5633 4.54362 73.5633C5.58048 73.5633 6.50848 73.2803 7.0895 72.7863L7.20516 72.6883V73.5279L7.17523 73.5484C6.56563 73.9716 5.60225 74.2152 4.53546 74.2152V74.2111V74.2138ZM4.48784 67.4912C1.92699 67.4912 0.269651 68.7827 0.269651 70.7831C0.269651 72.7836 1.94332 74.075 4.5341 74.075C5.55599 74.075 6.47582 73.8491 7.06501 73.4531V72.9809C6.45541 73.4395 5.54782 73.6994 4.54362 73.6994C2.21138 73.6994 0.703716 72.5536 0.703716 70.7818C0.703716 69.0099 2.19233 67.8641 4.496 67.8641C5.53694 67.8641 6.46222 68.124 7.06501 68.5813V68.109C6.48263 67.7198 5.52333 67.4871 4.48647 67.4871L4.48784 67.4912Z" fill="#324453"/>
<path d="M4.53478 74.2725C3.2149 74.2725 2.0964 73.9432 1.29767 73.3199C0.494852 72.6926 0.0703125 71.8148 0.0703125 70.782C0.0703125 69.7491 0.48941 68.8713 1.28542 68.244C2.07463 67.6207 3.1836 67.2914 4.48852 67.2914C5.58253 67.2914 6.60033 67.5445 7.20993 67.9691L7.26436 68.0058V69.0088L7.04937 68.8237C6.48876 68.3392 5.55667 68.0616 4.49532 68.0616C2.31411 68.0616 0.903064 69.1285 0.903064 70.7806C0.903064 72.4327 2.33044 73.4996 4.54295 73.4996C5.56484 73.4996 6.47923 73.2206 7.04937 72.7361L7.263 72.5551V73.5554L7.20857 73.5921C6.58945 74.0221 5.61246 74.2698 4.53478 74.2698H4.53614L4.53478 74.2725ZM4.48716 67.5513C1.96169 67.5513 0.330207 68.821 0.330207 70.7833C0.330207 72.7457 1.98074 74.0153 4.53478 74.0153C5.52946 74.0153 6.4248 73.8003 7.00582 73.422V73.0968C6.38806 73.52 5.51041 73.7595 4.54431 73.7595C2.17532 73.7595 0.645891 72.5919 0.645891 70.7833C0.645891 68.9748 2.15627 67.8071 4.49668 67.8071C5.49544 67.8071 6.39351 68.0453 7.00446 68.4672V68.1433C6.43025 67.7704 5.49544 67.5499 4.48716 67.5499V67.5513Z" fill="#324453"/>
<path d="M4.53523 74.3419C3.20038 74.3419 2.06691 74.0071 1.25457 73.3743C0.435426 72.7347 0 71.8379 0 70.7819C0 69.7259 0.428622 68.8291 1.24096 68.1895C2.04378 67.5567 3.165 67.2219 4.4876 67.2219C5.59386 67.2219 6.62799 67.4805 7.24847 67.9105L7.33284 67.969V69.1598L7.00219 68.8754C6.45382 68.4018 5.54079 68.131 4.49441 68.131C2.35402 68.131 0.971543 69.172 0.971543 70.7805C0.971543 72.3891 2.37307 73.4315 4.54067 73.4315C5.54759 73.4315 6.4443 73.1607 7.00219 72.6844L7.33148 72.4054V73.5921L7.24711 73.6519C6.61575 74.0901 5.62651 74.3405 4.53115 74.3405H4.53523V74.3419ZM4.4876 67.3648C3.19766 67.3648 2.10637 67.6887 1.32805 68.3024C0.552446 68.9148 0.140153 69.7735 0.140153 70.786C0.140153 71.7985 0.555167 72.6558 1.34165 73.2695C2.12678 73.8833 3.23167 74.2072 4.53523 74.2072C5.60066 74.2072 6.56132 73.9663 7.16955 73.5431L7.19405 73.5267V72.7143L7.09607 72.7987C6.51233 73.294 5.58297 73.5771 4.54475 73.5771C2.29143 73.5771 0.835473 72.4816 0.835473 70.7887C0.835473 69.0958 2.27238 68.0003 4.49713 68.0003C5.57617 68.0003 6.52322 68.2847 7.09607 68.7787L7.19405 68.8645V68.0507L7.16955 68.0344C6.56948 67.6193 5.568 67.3703 4.4876 67.3703V67.3662V67.3648ZM4.53523 74.0874C1.93764 74.0874 0.261255 72.7905 0.261255 70.786C0.261255 68.7815 1.92131 67.4832 4.4876 67.4832C5.50405 67.4832 6.45926 67.7091 7.04437 68.0874L7.07702 68.1078V68.6018L6.96681 68.527C6.35993 68.1092 5.48364 67.8792 4.49849 67.8792C2.20162 67.8792 0.717091 69.021 0.717091 70.786C0.717091 72.551 2.22067 73.6928 4.54611 73.6928C5.49861 73.6928 6.35721 73.4628 6.96681 73.0436L7.07702 72.9688V73.4628L7.04437 73.4832C6.45518 73.8669 5.53943 74.0874 4.53387 74.0874H4.53523ZM4.4876 67.6207C2.00432 67.6207 0.400047 68.8631 0.400047 70.7833C0.400047 72.7034 2.02201 73.9459 4.53387 73.9459C5.49316 73.9459 6.36538 73.7417 6.93415 73.3838V73.2246C6.30959 73.6138 5.46595 73.8275 4.54339 73.8275C2.13358 73.8275 0.575578 72.6313 0.575578 70.7819C0.575578 68.9325 2.11453 67.7363 4.49713 67.7363C5.45234 67.7363 6.31231 67.95 6.93551 68.3378V68.18C6.37082 67.8275 5.45915 67.6179 4.4876 67.6179V67.6207Z" fill="#324453"/>
<path d="M8.71826 67.5159H9.29248V70.5315H15.5871V67.5159H16.1613V74.052H15.5871V71.0364H9.29248V74.052H8.71826V67.5159Z" fill="#324453"/>
<path d="M16.232 74.1216H15.5177V71.106H9.36183V74.1216H8.64746V67.448H9.36183V70.4636H15.5177V67.448H16.232V74.1216ZM15.6578 73.9828H16.0919V67.5854H15.6578V70.6011H9.22304V67.5854H8.78897V73.9828H9.22304V70.9672H15.6578V73.9828Z" fill="#324453"/>
<path d="M16.293 74.1786H15.4602V71.163H9.42552V74.1786H8.59277V67.3866H9.42552V70.4022H15.4602V67.3866H16.293V74.1786ZM15.7174 73.9228H16.0331V67.6438H15.7174V70.6594H9.16291V67.6438H8.84722V73.9228H9.16291V70.9071H15.7174V73.9228Z" fill="#324453"/>
<path d="M16.3621 74.2479H15.3879V71.2323H9.49331V74.2479H8.51904V67.3171H9.49331V70.3328H15.3879V67.3171H16.3621V74.2479ZM15.5267 74.1091H16.2206V67.4559H15.5267V70.4716H9.35043V67.4559H8.65783V74.1091H9.35043V71.0935H15.5267V74.1091ZM16.1009 73.9907H15.6451V70.9751H9.23069V73.9907H8.77486V67.573H9.23069V70.5886H15.6451V67.573H16.1009V73.9907ZM15.7852 73.8519H15.9607V67.7104H15.7852V70.7261H9.0919V67.7104H8.91637V73.8519H9.0919V70.8363H15.7852V73.8519Z" fill="#324453"/>
<path d="M20.9031 67.5159H22.6271L25.9336 74.052H25.3213L24.4641 72.3618H19.0553L18.198 74.052H17.5952L20.9017 67.5159H20.9031ZM24.2382 71.8747L22.2869 68.0384H21.231L19.2798 71.8747H24.2382Z" fill="#324453"/>
<path d="M26.0481 74.1216H25.2793L24.422 72.4314H19.0989L18.2417 74.1216H17.4824L20.8597 67.448H22.6708L26.0481 74.1216ZM25.3636 73.9828H25.8195L22.5823 67.5854H20.9454L17.7083 73.9828H18.1546L19.0119 72.2926H24.5064L25.3636 73.9828ZM24.3513 71.9442H19.1683L21.189 67.9665H22.3293L24.3499 71.9442H24.3513ZM19.3956 71.8054H24.1254L22.2463 68.1066H21.2774L19.3983 71.8054H19.3969H19.3956Z" fill="#324453"/>
<path d="M26.1446 74.1786H25.2425L24.3852 72.4884H19.137L18.2797 74.1786H17.3857L20.8229 67.3866H22.7075L26.1446 74.1786ZM25.4017 73.9228H25.7241L22.5469 67.6438H20.9834L17.8062 73.9228H18.1192L18.9764 72.2326H24.5444L25.4017 73.9228ZM24.4478 72.004H19.0703L21.1522 67.9092H22.3673L24.4492 72.004H24.4478ZM19.4921 71.7481H24.0287L22.2081 68.1677H21.3127L19.4921 71.7481Z" fill="#324453"/>
<path d="M26.256 74.2479H25.1988L24.3415 72.5578H19.1804L18.3231 74.2479H17.2754L20.7833 67.3171H22.7536L26.2615 74.2479H26.2601H26.256ZM25.2831 74.1091H26.0288L22.6611 67.4559H20.8636L17.4958 74.1091H18.232L19.0892 72.419H24.4245L25.2818 74.1091H25.2831ZM25.8342 73.9907H25.3539L24.4966 72.3006H19.0144L18.1571 73.9907H17.6863L20.933 67.573H22.5835L25.8301 73.9907H25.8342ZM25.441 73.8519H25.607L22.5005 67.7104H21.0214L17.9149 73.8519H18.0714L18.9286 72.1618H24.5837L25.441 73.8519ZM24.5592 72.0719H18.9559L21.1071 67.8383H22.408L24.5592 72.0719ZM19.1817 71.9331H24.332L22.3222 67.9758H21.1929L19.1831 71.9331H19.1817ZM24.1374 71.8147H19.3736L21.2636 68.0955H22.246L24.1361 71.8147H24.1374ZM19.6022 71.6759H23.9102L22.1617 68.2343H21.3507L19.6022 71.6759Z" fill="#324453"/>
<path d="M27.355 67.5159H28.4109L31.5201 73.2491H31.8698L35.0443 67.5159H36.1002V74.052H35.5546V68.1038H35.3097L32.1161 73.8928H31.2684L28.1496 68.1038H27.9047V74.052H27.3591V67.5159H27.3577H27.355Z" fill="#324453"/>
<path d="M36.1716 74.1216H35.4858V68.1733H35.3511L32.1576 73.9624H31.2268L28.1081 68.1733H27.9734V74.1216H27.2876V67.448H28.4551L31.5643 73.1813H31.831L35.0055 67.448H36.173V74.1216H36.1716ZM35.626 73.9828H36.0315V67.5854H35.0872L31.9126 73.3187H31.4799L28.3707 67.5854H27.4264V73.9828H27.8332V68.0345H28.1897L31.3085 73.8236H32.0732L35.2668 68.0345H35.6233V73.9828H35.6246H35.626Z" fill="#324453"/>
<path d="M36.2302 74.1786H35.4233V68.2303H35.3852L32.1917 74.0194H31.1888L28.0701 68.2303H28.032V74.1786H27.2251V67.3866H28.4865L31.5957 73.1199H31.7903L34.9648 67.3866H36.2262V74.1786H36.2275H36.2302ZM35.6846 73.9228H35.9717V67.6438H35.1213L31.9467 73.3771H31.4446L28.3354 67.6438H27.4877V73.9228H27.7748V67.9745H28.2266L31.3453 73.7635H32.0379L35.2315 67.9745H35.6832V73.9228H35.6846Z" fill="#324453"/>
<path d="M36.2992 74.2479H35.3535V68.4303L32.2321 74.0887H31.1462L28.101 68.4358V74.2479H27.1553V67.3171H28.5282L31.6374 73.0504H31.749L34.9235 67.3171H36.2965V74.2479H36.3006H36.2992ZM35.495 74.1091H36.1604V67.4559H35.0106L31.8361 73.1892H31.5585L28.4493 67.4559H27.2995V74.1091H27.9649V68.1609H28.1146L31.2333 73.9499H32.1531L35.3467 68.1609H35.4978V74.1091H35.495ZM36.0407 73.9907H35.6134V68.0425H35.2732L32.0797 73.8315H31.3027L28.184 68.0425H27.8438V73.9907H27.4165V67.573H28.3758L31.485 73.3062H31.9041L35.0787 67.573H36.0407V73.9907ZM35.7536 73.8519H35.9005V67.7104H35.1617L31.9871 73.4437H31.402L28.2928 67.7104H27.5567V73.8519H27.7036V67.9037H28.2683L31.3871 73.6927H31.9967L35.1902 67.9037H35.7536V73.8519Z" fill="#324453"/>
<path d="M37.9863 67.516H44.4878V68.0195H38.5605V70.5412H43.9231V71.0256H38.5605V73.5473H44.4878V74.0508H37.9863V67.5146V67.516Z" fill="#324453"/>
<path d="M44.5577 74.1216H37.9175V67.448H44.5577V68.0903H38.6305V70.4732H43.993V71.0978H38.6305V73.4806H44.5577V74.123V74.1216ZM38.0563 73.9828H44.4176V73.6181H38.4903V70.959H43.8529V70.6133H38.4903V67.9542H44.4176V67.5895H38.0563V73.9869V73.9828Z" fill="#324453"/>
<path d="M44.6173 74.1786H37.856V67.3866H44.6173V68.1487H38.6901V70.4131H44.0526V71.1561H38.6901V73.4206H44.6173V74.1827V74.1786ZM38.1145 73.9228H44.3574V73.6751H38.4302V70.8976H43.7927V70.669H38.4302V67.8915H44.3574V67.6438H38.1145V73.9228Z" fill="#324453"/>
<path d="M44.6876 74.2479H37.7861V67.3171H44.6876V68.218H38.7604V70.3437H44.1229V71.2255H38.7604V73.3511H44.6876V74.2507V74.2466V74.2479ZM37.9263 74.1091H44.5461V73.4872H38.6189V71.084H43.9814V70.4797H38.6189V68.0765H44.5461V67.4546H37.9263V74.1078V74.1091ZM44.4291 73.9907H38.0474V67.573H44.4291V67.9581H38.5019V70.5968H43.8644V70.9642H38.5019V73.6029H44.4291V73.988V73.9907ZM38.1848 73.8547H44.2876V73.7458H38.3604V70.8295H43.7229V70.7397H38.3604V67.8234H44.2876V67.7145H38.1848V73.8547Z" fill="#324453"/>
<path d="M46.0498 67.5158C47.7643 67.5158 48.6501 67.46 50.385 67.46C52.2505 67.46 53.6643 68.4221 53.6643 69.6632C53.6643 70.7287 52.5894 71.6146 51.1865 71.782L53.5609 74.0506H52.7594L50.4803 71.8106H46.6172V74.0506H46.0525V67.5144H46.0512L46.0498 67.5158ZM50.6776 71.3261C52.0995 71.3261 53.0901 70.5042 53.0901 69.6741C53.0901 68.8439 52.0437 67.9744 50.3945 67.9744C48.8583 67.9744 47.8691 68.0302 46.6159 68.0302V71.3166C47.284 71.3166 49.3209 71.3261 50.6762 71.3261H50.6776Z" fill="#324453"/>
<path d="M53.734 74.1212H52.7311L52.7107 74.1008L50.452 71.8785H46.6882V74.1185H45.9834V67.4448H46.0528C46.906 67.4448 47.5673 67.4299 48.2054 67.4163C48.849 67.4027 49.5158 67.3877 50.3866 67.3877C52.2957 67.3877 53.7353 68.3648 53.7353 69.6603C53.7353 70.7163 52.7366 71.6131 51.3391 71.8295L53.734 74.1185V74.1212ZM52.7896 73.9851H53.3883L51.033 71.7329L51.1786 71.7166C52.5556 71.5519 53.5938 70.6701 53.5938 69.6658C53.5938 68.4492 52.2154 67.5319 50.3853 67.5319C49.5158 67.5319 48.8518 67.5469 48.2082 67.5605C47.5863 67.5741 46.9441 67.5864 46.1208 67.5891V73.9864H46.5454V71.7465H50.5077L50.5282 71.7669L52.7869 73.9892H52.7883L52.7896 73.9851ZM50.6778 71.3954C49.8805 71.3954 48.849 71.3913 47.9972 71.3899C47.3999 71.3886 46.8923 71.3859 46.6148 71.3859H46.5454V67.9606H46.6148C47.208 67.9606 47.7428 67.947 48.3048 67.9348C48.9334 67.9198 49.5852 67.9048 50.3921 67.9048C52.1215 67.9048 53.157 68.803 53.157 69.6739C53.157 70.5449 52.2086 71.3954 50.6751 71.3954H50.6765H50.6778ZM46.6869 71.2471C46.974 71.2471 47.4475 71.2471 48 71.2511C48.8504 71.2525 49.8818 71.2566 50.6778 71.2566C51.8086 71.2566 53.0196 70.6197 53.0196 69.6726C53.0196 68.871 52.0372 68.0423 50.3948 68.0423C49.5879 68.0423 48.9388 68.0572 48.3102 68.0722C47.7686 68.0858 47.2543 68.0967 46.6855 68.0981V71.2457H46.6869V71.2471Z" fill="#324453"/>
<path d="M53.8812 74.1786H52.7069L50.4278 71.9387H46.7471V74.1786H45.9238V67.3866H46.0545C46.9076 67.3866 47.5676 67.3717 48.2057 67.358C48.8493 67.3444 49.5188 67.3295 50.3869 67.3295C52.33 67.3295 53.7955 68.3324 53.7955 69.662C53.7955 70.718 52.8308 71.6161 51.4673 71.8693L53.8853 74.1786H53.8839H53.8812ZM52.8144 73.9214H53.2417L50.9013 71.6869L51.1707 71.6556C52.5192 71.495 53.5356 70.6377 53.5356 69.6647C53.5356 68.4998 52.1531 67.5894 50.3856 67.5894C49.5188 67.5894 48.8521 67.6044 48.2098 67.618C47.6029 67.6316 46.977 67.6438 46.181 67.6465V73.9255H46.4872V71.6855H50.5325L52.8117 73.9255H52.8131L52.8144 73.9214ZM50.6781 71.4515C49.8808 71.4515 48.8493 71.4474 47.9975 71.446C47.4002 71.446 46.8926 71.4419 46.6164 71.4419H46.4858V67.8983H46.6164C47.2097 67.8983 47.7417 67.8847 48.3064 67.8724C48.9351 67.8575 49.5868 67.8425 50.3951 67.8425C51.783 67.8425 53.2186 68.5257 53.2186 69.6715C53.2186 70.5288 52.2457 71.4528 50.6768 71.4528L50.6781 71.4515ZM46.7457 71.1834C47.0369 71.1834 47.4846 71.1834 47.9975 71.1875C48.848 71.1888 49.8794 71.1929 50.6754 71.1929C51.7789 71.1929 52.9587 70.5805 52.9587 69.6688C52.9587 68.8958 51.9994 68.0983 50.3937 68.0983C49.5896 68.0983 48.9392 68.1133 48.3105 68.1283C47.7853 68.1419 47.2886 68.1528 46.7443 68.1541V71.1848L46.7457 71.1834Z" fill="#324453"/>
<path d="M54.0549 74.2479H52.6778L52.6574 74.2275L50.3987 72.0052H46.8173V74.2452H45.8525V67.3144H46.0526C46.903 67.3144 47.5602 67.2994 48.1943 67.2858H48.2093C48.8529 67.2708 49.5183 67.2572 50.385 67.2572C52.369 67.2572 53.8644 68.2901 53.8644 69.6591C53.8644 70.7056 52.9445 71.6146 51.6097 71.9072L54.0549 74.2452V74.2479ZM52.7363 74.1104H53.7092L51.3198 71.8269L51.4546 71.8024C52.7921 71.5548 53.7269 70.6757 53.7269 69.6632C53.7269 68.3731 52.2914 67.4001 50.3878 67.4001C49.521 67.4001 48.8556 67.4151 48.2134 67.4287L48.197 67.3593V67.4287C47.5629 67.4423 46.903 67.4572 46.0539 67.4572H45.994V74.1104H46.6771V71.8705H50.4558L50.4762 71.8909L52.735 74.1132H52.7363V74.1104ZM53.414 73.9907H52.7853L52.7649 73.9703L50.5061 71.748H46.5587V73.988H46.1124V67.5702H46.1818C46.9697 67.5702 47.5929 67.5552 48.1957 67.5416H48.2093C48.8583 67.5266 49.5224 67.513 50.3864 67.513C52.1921 67.513 53.6072 68.4547 53.6072 69.6577C53.6072 70.6661 52.5649 71.5534 51.1824 71.7181L51.0572 71.733L53.4167 73.9866H53.4153L53.414 73.9907ZM52.8411 73.8546H53.0656L50.7443 71.6364L51.162 71.5861C52.4751 71.4296 53.4643 70.6022 53.4643 69.6618C53.4643 68.5364 52.1118 67.6559 50.3837 67.6559C49.521 67.6559 48.8583 67.6709 48.2161 67.6845H48.1957C47.6106 67.6981 47.0064 67.7104 46.2499 67.7131V73.8532H46.4159V71.6133H50.5619L50.5823 71.6337L52.8411 73.856V73.8546ZM50.6762 71.5248C49.917 71.5248 48.9481 71.5207 48.1222 71.5194H47.9725C47.3847 71.518 46.8867 71.5153 46.6145 71.5153H46.4145V67.8342H46.6145C47.2037 67.8342 47.7344 67.8206 48.295 67.8083C48.9291 67.7934 49.5795 67.7784 50.3918 67.7784C51.8138 67.7784 53.2861 68.4874 53.2861 69.6768C53.2861 70.5654 52.2873 71.5275 50.6735 71.5275H50.6749L50.6762 71.5248ZM46.5547 71.3751H46.6145C46.8867 71.3751 47.3847 71.3751 47.9725 71.3792H48.1222C48.9481 71.3833 49.9183 71.3847 50.6762 71.3847C52.2016 71.3847 53.1486 70.496 53.1486 69.6727C53.1486 68.5718 51.7485 67.9131 50.3946 67.9131C49.5822 67.9131 48.9345 67.9281 48.3072 67.9431C47.7385 67.9567 47.2078 67.9689 46.6173 67.9689H46.5574V71.3738H46.556L46.5547 71.3751ZM50.6762 71.2663C49.8789 71.2663 48.8474 71.2622 47.9984 71.2608C47.484 71.2608 47.0363 71.2567 46.7465 71.2567H46.6771V68.0887H46.7465C47.2922 68.0873 47.7875 68.0751 48.31 68.0628C48.9373 68.0479 49.5849 68.0329 50.3946 68.0329C52.0437 68.0329 53.0289 68.8671 53.0289 69.6727C53.0289 70.6253 51.8124 71.2649 50.6749 71.2649L50.6762 71.2663ZM46.8132 71.122C47.1044 71.122 47.5221 71.122 47.9956 71.1261C48.8461 71.1275 49.8761 71.1315 50.6735 71.1315C51.743 71.1315 52.8874 70.5477 52.8874 69.6768C52.8874 68.9392 51.9539 68.1758 50.3918 68.1758C49.5836 68.1758 48.9359 68.1907 48.31 68.2057C47.8079 68.2166 47.3316 68.2288 46.8118 68.2316V71.1234L46.8132 71.122Z" fill="#324453"/>
<path d="M55.2866 67.5159H55.8608V74.052H55.2866V67.5159Z" fill="#324453"/>
<path d="M55.9302 74.1212H55.2158V67.4476H55.9302V74.1212ZM55.356 73.9824H55.79V67.5851H55.356V73.9824Z" fill="#324453"/>
<path d="M55.9914 74.1786H55.1587V67.3866H55.9914V74.1786ZM55.4159 73.9228H55.7315V67.6438H55.4159V73.9228Z" fill="#324453"/>
<path d="M56.0608 74.2479H55.0879V67.3171H56.0608V74.2479ZM55.2253 74.1091H55.9179V67.4559H55.2253V74.1091ZM55.8009 73.9907H55.3451V67.573H55.8009V73.9907ZM55.4839 73.8519H55.6594V67.7104H55.4839V73.8519Z" fill="#324453"/>
<path d="M15.2976 0.0408255L26.5248 0C26.3969 2.36379 25.5328 8.87681 19.0287 16.3683C13.3573 22.9004 6.34282 25.2492 3.73571 26.0861C2.23077 26.5692 0.946268 26.8604 0.0400391 27.0373L0.0563675 21.9804C1.93686 21.183 6.36595 18.9144 10.2399 13.7786C14.6744 7.897 15.2105 1.93513 15.2976 0.0408255Z" fill="#324453"/>
<path d="M30.722 0.0352783L42.4825 0.0488868C41.5001 4.31379 38.4222 12.7306 29.1476 20.8522C22.2638 26.8821 14.8752 29.1588 11.7034 30.1005C7.04027 31.4859 2.96768 31.9458 0.0380859 32.0942L0.0530537 28.3682C3.15818 28.0075 11.4122 26.6113 19.1465 19.8179C28.221 11.8488 30.2593 2.87129 30.722 0.0352783Z" fill="#324453"/>
<path d="M48.4572 0.0678711H56.0445V10.2565C51.8549 15.5924 44.8976 22.9315 34.6148 28.9913C23.7564 35.3901 14.1688 37.3837 11.7713 37.8505C7.04146 38.7677 2.9852 39.0358 0.0419922 39.0916L0.0460743 33.6972C5.80866 33.3515 17.5624 31.8274 28.7624 23.9657C37.3961 17.9059 42.4116 10.3885 44.2363 7.60153C46.1726 4.64441 47.5401 2.00708 48.4572 0.0678711Z" fill="#324453"/>
<path d="M0.0419922 44.9431V40.4237C11.3032 40.274 31.7614 38.1443 48.8845 23.9779C51.546 21.7774 53.9844 19.4803 56.05 17.1696L56.0445 32.3376C52.6387 34.8075 48.0585 37.649 42.5395 40.142C36.5415 42.8529 31.8076 44.0409 30.5844 44.3389C26.0641 45.4317 22.6011 45.727 20.4566 45.8998C15.2792 46.3189 10.3507 45.9733 7.85652 45.7664" fill="#324453"/>
<path d="M0.0419922 46.3764C2.09121 46.7261 5.11334 47.1807 8.7886 47.5045C16.3364 48.1714 26.8996 49.1035 38.784 45.6987C42.979 44.4971 49.2478 42.2476 56.0445 37.7704L56.0554 50.2603C53.681 51.2659 50.8289 52.175 47.5945 52.982C46.574 53.2364 42.5409 54.2938 36.8327 55.0749C32.3955 55.6819 27.8235 56.3079 21.7044 55.984C18.8469 55.8343 14.7186 55.4288 9.8758 54.2693C5.98691 53.3412 2.68312 52.1763 0.0447136 51.0877V46.3764H0.0433529H0.0419922Z" fill="#324453"/>
<path d="M56.0539 62.7119H0.0078125V52.6484C2.21624 53.5575 4.5444 54.6217 6.99231 55.362C26 61.1156 43.7599 58.4035 56.0539 54.9129V62.7119Z" fill="#324453"/>
</g>
<defs>
<clipPath id="clip0_1512_11375">
<rect width="56.061" height="74.3418" fill="white"/>
</clipPath>
</defs>
</svg>
