<svg width="75" height="97" viewBox="0 0 75 97" fill="none" xmlns="http://www.w3.org/2000/svg">
<rect width="74.8359" height="90.1797" rx="5" fill="#C9C9C9"/>
<path d="M32.4477 88.6507H24.7134C24.1611 88.6507 23.7134 88.203 23.7134 87.6507V84.4229C23.7134 83.8706 24.1611 83.4229 24.7134 83.4229H50.1581C50.7103 83.4229 51.1581 83.8706 51.1581 84.4229V87.6507C51.1581 88.203 50.7103 88.6507 50.1581 88.6507H43.1699C42.8127 88.6507 42.4826 88.8413 42.3039 89.1507L38.6748 95.4365C38.2899 96.1032 37.3277 96.1032 36.9428 95.4365L33.3137 89.1507C33.135 88.8413 32.8049 88.6507 32.4477 88.6507Z" fill="#C9C9C9" stroke="#C9C9C9"/>
<g clip-path="url(#clip0_1512_11372)">
<path d="M13.875 75.3408C14.7989 75.3408 15.8643 75.5368 16.5229 75.994V76.6472C15.8643 76.0784 14.818 75.8539 13.8845 75.8539C11.6244 75.8539 10.1616 76.9847 10.1616 78.7021C10.1616 80.4195 11.6407 81.5504 13.9321 81.5504C14.8656 81.5504 15.8643 81.3163 16.5229 80.757V81.4102C15.8643 81.8674 14.8547 82.0634 13.9226 82.0634C11.2842 82.0634 9.5874 80.7189 9.5874 78.7021C9.5874 76.6853 11.2652 75.3408 13.875 75.3408Z" fill="#324453"/>
<path d="M13.9232 82.1328C11.2466 82.1328 9.51855 80.7855 9.51855 78.7021C9.51855 76.6186 11.2303 75.2714 13.8755 75.2714C14.9573 75.2714 15.9629 75.5204 16.5629 75.9382L16.5929 75.9586V76.801L16.4772 76.7016C15.9043 76.2076 14.96 75.9246 13.8837 75.9246C11.6644 75.9246 10.2316 77.016 10.2316 78.7034C10.2316 80.3909 11.6834 81.4823 13.9313 81.4823C14.9682 81.4823 15.8962 81.1992 16.4772 80.7052L16.5929 80.6073V81.4469L16.5629 81.4673C15.9533 81.8905 14.9899 82.1341 13.9232 82.1341V82.13V82.1328ZM13.8755 75.4102C11.3147 75.4102 9.65735 76.7016 9.65735 78.7021C9.65735 80.7025 11.331 81.994 13.9218 81.994C14.9437 81.994 15.8635 81.7681 16.4527 81.372V80.8998C15.8431 81.3584 14.9355 81.6184 13.9313 81.6184C11.5991 81.6184 10.0914 80.4725 10.0914 78.7007C10.0914 76.9289 11.58 75.783 13.8837 75.783C14.9246 75.783 15.8499 76.043 16.4527 76.5002V76.028C15.8703 75.6388 14.911 75.4061 13.8742 75.4061L13.8755 75.4102Z" fill="#324453"/>
<path d="M13.9225 82.1915C12.6026 82.1915 11.4841 81.8622 10.6854 81.2389C9.88255 80.6115 9.45801 79.7338 9.45801 78.7009C9.45801 77.668 9.8771 76.7903 10.6731 76.1629C11.4623 75.5397 12.5713 75.2103 13.8762 75.2103C14.9702 75.2103 15.988 75.4634 16.5976 75.888L16.6521 75.9248V76.9277L16.4371 76.7426C15.8765 76.2582 14.9444 75.9806 13.883 75.9806C11.7018 75.9806 10.2908 77.0475 10.2908 78.6995C10.2908 80.3516 11.7181 81.4185 13.9306 81.4185C14.9525 81.4185 15.8669 81.1395 16.4371 80.6551L16.6507 80.4741V81.4743L16.5963 81.5111C15.9771 81.9411 15.0002 82.1888 13.9225 82.1888H13.9238L13.9225 82.1915ZM13.8749 75.4702C11.3494 75.4702 9.7179 76.7399 9.7179 78.7023C9.7179 80.6646 11.3684 81.9343 13.9225 81.9343C14.9172 81.9343 15.8125 81.7193 16.3935 81.341V81.0157C15.7758 81.4389 14.8981 81.6784 13.932 81.6784C11.563 81.6784 10.0336 80.5108 10.0336 78.7023C10.0336 76.8937 11.544 75.7261 13.8844 75.7261C14.8831 75.7261 15.7812 75.9642 16.3922 76.3861V76.0622C15.8179 75.6893 14.8831 75.4689 13.8749 75.4689V75.4702Z" fill="#324453"/>
<path d="M13.9229 82.2608C12.5881 82.2608 11.4546 81.9261 10.6423 81.2933C9.82312 80.6537 9.3877 79.7569 9.3877 78.7008C9.3877 77.6448 9.81632 76.748 10.6287 76.1084C11.4315 75.4756 12.5527 75.1409 13.8753 75.1409C14.9816 75.1409 16.0157 75.3994 16.6362 75.8295L16.7205 75.888V77.0787L16.3899 76.7943C15.8415 76.3207 14.9285 76.0499 13.8821 76.0499C11.7417 76.0499 10.3592 77.091 10.3592 78.6995C10.3592 80.308 11.7608 81.3504 13.9284 81.3504C14.9353 81.3504 15.832 81.0796 16.3899 80.6033L16.7192 80.3243V81.511L16.6348 81.5709C16.0034 82.0091 15.0142 82.2595 13.9188 82.2595H13.9229V82.2608ZM13.8753 75.2838C12.5854 75.2838 11.4941 75.6076 10.7157 76.2214C9.94014 76.8338 9.52785 77.6925 9.52785 78.7049C9.52785 79.7174 9.94286 80.5747 10.7293 81.1885C11.5145 81.8022 12.6194 82.1261 13.9229 82.1261C14.9884 82.1261 15.949 81.8852 16.5572 81.462L16.5817 81.4457V80.6333L16.4838 80.7176C15.9 81.213 14.9707 81.496 13.9324 81.496C11.6791 81.496 10.2232 80.4005 10.2232 78.7077C10.2232 77.0148 11.6601 75.9193 13.8848 75.9193C14.9639 75.9193 15.9109 76.2037 16.4838 76.6977L16.5817 76.7834V75.9696L16.5572 75.9533C15.9572 75.5382 14.9557 75.2892 13.8753 75.2892V75.2851V75.2838ZM13.9229 82.0063C11.3253 82.0063 9.64895 80.7095 9.64895 78.7049C9.64895 76.7004 11.309 75.4022 13.8753 75.4022C14.8917 75.4022 15.847 75.6281 16.4321 76.0064L16.4647 76.0268V76.5208L16.3545 76.4459C15.7476 76.0281 14.8713 75.7982 13.8862 75.7982C11.5893 75.7982 10.1048 76.9399 10.1048 78.7049C10.1048 80.4699 11.6084 81.6117 13.9338 81.6117C14.8863 81.6117 15.7449 81.3817 16.3545 80.9626L16.4647 80.8877V81.3817L16.4321 81.4021C15.8429 81.7859 14.9271 82.0063 13.9216 82.0063H13.9229ZM13.8753 75.5396C11.392 75.5396 9.78774 76.7821 9.78774 78.7022C9.78774 80.6224 11.4097 81.8648 13.9216 81.8648C14.8809 81.8648 15.7531 81.6607 16.3218 81.3028V81.1436C15.6973 81.5328 14.8536 81.7464 13.9311 81.7464C11.5213 81.7464 9.96327 80.5502 9.96327 78.7008C9.96327 76.8515 11.5022 75.6553 13.8848 75.6553C14.84 75.6553 15.7 75.8689 16.3232 76.2568V76.0989C15.7585 75.7464 14.8468 75.5369 13.8753 75.5369V75.5396Z" fill="#324453"/>
<path d="M18.106 75.4348H18.6802V78.4505H24.9748V75.4348H25.549V81.971H24.9748V78.9553H18.6802V81.971H18.106V75.4348Z" fill="#324453"/>
<path d="M25.6197 82.0405H24.9054V79.0249H18.7495V82.0405H18.0352V75.3669H18.7495V78.3826H24.9054V75.3669H25.6197V82.0405ZM25.0455 81.9017H25.4796V75.5044H25.0455V78.52H18.6107V75.5044H18.1767V81.9017H18.6107V78.8861H25.0455V81.9017Z" fill="#324453"/>
<path d="M25.6807 82.0975H24.8479V79.0819H18.8132V82.0975H17.9805V75.3055H18.8132V78.3212H24.8479V75.3055H25.6807V82.0975ZM25.1051 81.8417H25.4208V75.5627H25.1051V78.5784H18.5506V75.5627H18.2349V81.8417H18.5506V78.8261H25.1051V81.8417Z" fill="#324453"/>
<path d="M25.7498 82.1669H24.7756V79.1512H18.881V82.1669H17.9067V75.2361H18.881V78.2517H24.7756V75.2361H25.7498V82.1669ZM24.9144 82.0281H25.6083V75.3749H24.9144V78.3905H18.7381V75.3749H18.0455V82.0281H18.7381V79.0124H24.9144V82.0281ZM25.4886 81.9097H25.0327V78.894H18.6184V81.9097H18.1626V75.4919H18.6184V78.5076H25.0327V75.4919H25.4886V81.9097ZM25.1729 81.7709H25.3484V75.6294H25.1729V78.645H18.4796V75.6294H18.3041V81.7709H18.4796V78.7552H25.1729V81.7709Z" fill="#324453"/>
<path d="M30.2908 75.4348H32.0148L35.3213 81.971H34.709L33.8517 80.2808H28.4429L27.5857 81.971H26.9829L30.2894 75.4348H30.2908ZM33.6259 79.7936L31.6746 75.9574H30.6187L28.6675 79.7936H33.6259Z" fill="#324453"/>
<path d="M35.4358 82.0405H34.667L33.8097 80.3504H28.4866L27.6294 82.0405H26.8701L30.2474 75.3669H32.0585L35.4358 82.0405ZM34.7513 81.9017H35.2072L31.97 75.5044H30.3331L27.096 81.9017H27.5423L28.3995 80.2116H33.8941L34.7513 81.9017ZM33.739 79.8632H28.556L30.5767 75.8854H31.7169L33.7376 79.8632H33.739ZM28.7833 79.7244H33.5131L31.6339 76.0256H30.6651L28.786 79.7244H28.7846H28.7833Z" fill="#324453"/>
<path d="M35.5323 82.0975H34.6301L33.7729 80.4074H28.5247L27.6674 82.0975H26.7734L30.2106 75.3055H32.0952L35.5323 82.0975ZM34.7893 81.8417H35.1118L31.9346 75.5627H30.3711L27.1939 81.8417H27.5069L28.3641 80.1515H33.9321L34.7893 81.8417ZM33.8355 79.9229H28.458L30.5399 75.8281H31.755L33.8369 79.9229H33.8355ZM28.8798 79.6671H33.4164L31.5958 76.0867H30.7004L28.8798 79.6671Z" fill="#324453"/>
<path d="M35.6437 82.1669H34.5865L33.7292 80.4767H28.5681L27.7108 82.1669H26.6631L30.171 75.2361H32.1413L35.6492 82.1669H35.6478H35.6437ZM34.6708 82.0281H35.4165L32.0488 75.3749H30.2513L26.8835 82.0281H27.6197L28.4769 80.3379H33.8122L34.6695 82.0281H34.6708ZM35.2219 81.9097H34.7416L33.8843 80.2195H28.4021L27.5448 81.9097H27.074L30.3207 75.4919H31.9712L35.2178 81.9097H35.2219ZM34.8287 81.7709H34.9947L31.8882 75.6294H30.4091L27.3026 81.7709H27.4591L28.3163 80.0807H33.9714L34.8287 81.7709ZM33.9469 79.9909H28.3436L30.4948 75.7573H31.7957L33.9469 79.9909ZM28.5694 79.8521H33.7197L31.7099 75.8947H30.5806L28.5708 79.8521H28.5694ZM33.5251 79.7337H28.7613L30.6513 76.0145H31.6337L33.5238 79.7337H33.5251ZM28.9899 79.5949H33.2979L31.5494 76.1533H30.7384L28.9899 79.5949Z" fill="#324453"/>
<path d="M36.7427 75.4348H37.7986L40.9078 81.1681H41.2575L44.432 75.4348H45.4879V81.971H44.9423V76.0227H44.6974L41.5038 81.8117H40.6561L37.5373 76.0227H37.2924V81.971H36.7468V75.4348H36.7454H36.7427Z" fill="#324453"/>
<path d="M45.5593 82.0405H44.8735V76.0923H44.7388L41.5453 81.8813H40.6145L37.4958 76.0923H37.3611V82.0405H36.6753V75.3669H37.8428L40.952 81.1002H41.2187L44.3932 75.3669H45.5607V82.0405H45.5593ZM45.0137 81.9017H45.4192V75.5044H44.4749L41.3003 81.2376H40.8676L37.7584 75.5044H36.8141V81.9017H37.2209V75.9535H37.5774L40.6962 81.7425H41.4609L44.6545 75.9535H45.011V81.9017H45.0123H45.0137Z" fill="#324453"/>
<path d="M45.6179 82.0975H44.811V76.1493H44.7729L41.5794 81.9383H40.5765L37.4578 76.1493H37.4197V82.0975H36.6128V75.3055H37.8742L40.9834 81.0388H41.178L44.3525 75.3055H45.6139V82.0975H45.6152H45.6179ZM45.0723 81.8417H45.3594V75.5627H44.509L41.3344 81.296H40.8323L37.7231 75.5627H36.8754V81.8417H37.1625V75.8934H37.6143L40.733 81.6825H41.4256L44.6192 75.8934H45.0709V81.8417H45.0723Z" fill="#324453"/>
<path d="M45.6869 82.1669H44.7412V76.3493L41.6198 82.0077H40.5339L37.4887 76.3547V82.1669H36.543V75.2361H37.9159L41.0251 80.9693H41.1367L44.3112 75.2361H45.6842V82.1669H45.6883H45.6869ZM44.8827 82.0281H45.5481V75.3749H44.3983L41.2238 81.1081H40.9462L37.837 75.3749H36.6872V82.0281H37.3526V76.0798H37.5023L40.621 81.8689H41.5408L44.7344 76.0798H44.8854V82.0281H44.8827ZM45.4284 81.9097H45.0011V75.9614H44.6609L41.4674 81.7505H40.6904L37.5717 75.9614H37.2315V81.9097H36.8042V75.4919H37.7635L40.8727 81.2252H41.2918L44.4663 75.4919H45.4284V81.9097ZM45.1413 81.7709H45.2882V75.6294H44.5494L41.3748 81.3626H40.7897L37.6805 75.6294H36.9444V81.7709H37.0913V75.8226H37.656L40.7748 81.6117H41.3844L44.5779 75.8226H45.1413V81.7709Z" fill="#324453"/>
<path d="M47.374 75.435H53.8755V75.9385H47.9482V78.4601H53.3108V78.9446H47.9482V81.4662H53.8755V81.9698H47.374V75.4336V75.435Z" fill="#324453"/>
<path d="M53.9454 82.0405H47.3052V75.3669H53.9454V76.0093H48.0182V78.3921H53.3807V79.0167H48.0182V81.3996H53.9454V82.0419V82.0405ZM47.444 81.9017H53.8053V81.537H47.878V78.8779H53.2406V78.5323H47.878V75.8732H53.8053V75.5085H47.444V81.9058V81.9017Z" fill="#324453"/>
<path d="M54.005 82.0975H47.2437V75.3055H54.005V76.0676H48.0778V78.3321H53.4403V79.0751H48.0778V81.3395H54.005V82.1016V82.0975ZM47.5022 81.8417H53.7451V81.594H47.8179V78.8165H53.1804V78.5879H47.8179V75.8104H53.7451V75.5627H47.5022V81.8417Z" fill="#324453"/>
<path d="M54.0753 82.1669H47.1738V75.2361H54.0753V76.137H48.1481V78.2626H53.5106V79.1444H48.1481V81.2701H54.0753V82.1696V82.1655V82.1669ZM47.314 82.0281H53.9338V81.4062H48.0066V79.0029H53.3691V78.3987H48.0066V75.9954H53.9338V75.3735H47.314V82.0267V82.0281ZM53.8168 81.9097H47.4351V75.4919H53.8168V75.877H47.8896V78.5157H53.2521V78.8832H47.8896V81.5218H53.8168V81.907V81.9097ZM47.5725 81.7736H53.6753V81.6647H47.748V78.7484H53.1106V78.6586H47.748V75.7423H53.6753V75.6334H47.5725V81.7736Z" fill="#324453"/>
<path d="M55.4375 75.4347C57.152 75.4347 58.0378 75.3789 59.7727 75.3789C61.6382 75.3789 63.052 76.341 63.052 77.5821C63.052 78.6477 61.977 79.5336 60.5742 79.701L62.9486 81.9695H62.1471L59.868 79.7295H56.0049V81.9695H55.4402V75.4333H55.4389L55.4375 75.4347ZM60.0653 79.2451C61.4872 79.2451 62.4778 78.4231 62.4778 77.593C62.4778 76.7629 61.4314 75.8933 59.7822 75.8933C58.246 75.8933 57.2568 75.9491 56.0036 75.9491V79.2356C56.6717 79.2356 58.7086 79.2451 60.0639 79.2451H60.0653Z" fill="#324453"/>
<path d="M63.1217 82.0401H62.1188L62.0984 82.0197L59.8396 79.7974H56.0759V82.0374H55.3711V75.3638H55.4405C56.2937 75.3638 56.955 75.3488 57.5931 75.3352C58.2367 75.3216 58.9035 75.3066 59.7743 75.3066C61.6834 75.3066 63.123 76.2837 63.123 77.5793C63.123 78.6353 62.1243 79.5321 60.7268 79.7485L63.1217 82.0374V82.0401ZM62.1773 81.904H62.776L60.4207 79.6518L60.5663 79.6355C61.9433 79.4708 62.9815 78.589 62.9815 77.5847C62.9815 76.3681 61.6031 75.4509 59.773 75.4509C58.9035 75.4509 58.2395 75.4659 57.5958 75.4795C56.974 75.4931 56.3318 75.5053 55.5085 75.508V81.9054H55.9331V79.6654H59.8954L59.9158 79.6859L62.1746 81.9081H62.176L62.1773 81.904ZM60.0655 79.3143C59.2682 79.3143 58.2367 79.3103 57.3849 79.3089C56.7876 79.3075 56.28 79.3048 56.0025 79.3048H55.9331V75.8796H56.0025C56.5957 75.8796 57.1305 75.8659 57.6925 75.8537C58.3211 75.8387 58.9729 75.8238 59.7798 75.8238C61.5092 75.8238 62.5447 76.7219 62.5447 77.5929C62.5447 78.4638 61.5963 79.3143 60.0628 79.3143H60.0642H60.0655ZM56.0746 79.166C56.3617 79.166 56.8352 79.166 57.3877 79.1701C58.2381 79.1715 59.2695 79.1755 60.0655 79.1755C61.1963 79.1755 62.4073 78.5387 62.4073 77.5915C62.4073 76.79 61.4249 75.9612 59.7825 75.9612C58.9756 75.9612 58.3265 75.9762 57.6979 75.9911C57.1563 76.0048 56.642 76.0156 56.0732 76.017V79.1646H56.0746V79.166Z" fill="#324453"/>
<path d="M63.2689 82.0976H62.0946L59.8155 79.8576H56.1347V82.0976H55.3115V75.3056H55.4421C56.2953 75.3056 56.9553 75.2906 57.5934 75.277C58.237 75.2634 58.9065 75.2484 59.7746 75.2484C61.7177 75.2484 63.1832 76.2514 63.1832 77.5809C63.1832 78.6369 62.2185 79.5351 60.855 79.7882L63.273 82.0976H63.2716H63.2689ZM62.2021 81.8404H62.6294L60.289 79.6059L60.5584 79.5745C61.9069 79.414 62.9233 78.5566 62.9233 77.5836C62.9233 76.4187 61.5408 75.5083 59.7733 75.5083C58.9065 75.5083 58.2398 75.5233 57.5975 75.5369C56.9906 75.5505 56.3647 75.5628 55.5687 75.5655V81.8444H55.8749V79.6045H59.9202L62.1994 81.8444H62.2008L62.2021 81.8404ZM60.0658 79.3704C59.2685 79.3704 58.237 79.3663 57.3852 79.365C56.7879 79.365 56.2803 79.3609 56.0041 79.3609H55.8735V75.8172H56.0041C56.5974 75.8172 57.1294 75.8036 57.6941 75.7914C58.3228 75.7764 58.9745 75.7615 59.7828 75.7615C61.1707 75.7615 62.6063 76.4446 62.6063 77.5904C62.6063 78.4478 61.6334 79.3718 60.0645 79.3718L60.0658 79.3704ZM56.1334 79.1023C56.4246 79.1023 56.8723 79.1023 57.3852 79.1064C58.2357 79.1078 59.2671 79.1119 60.0631 79.1119C61.1666 79.1119 62.3464 78.4995 62.3464 77.5877C62.3464 76.8148 61.3871 76.0173 59.7814 76.0173C58.9773 76.0173 58.3268 76.0323 57.6982 76.0472C57.173 76.0608 56.6763 76.0717 56.132 76.0731V79.1037L56.1334 79.1023Z" fill="#324453"/>
<path d="M63.4426 82.1668H62.0655L62.0451 82.1464L59.7863 79.9241H56.205V82.1641H55.2402V75.2333H55.4403C56.2907 75.2333 56.9479 75.2183 57.582 75.2047H57.597C58.2406 75.1898 58.906 75.1761 59.7727 75.1761C61.7566 75.1761 63.2521 76.209 63.2521 77.578C63.2521 78.6245 62.3322 79.5336 60.9974 79.8262L63.4426 82.1641V82.1668ZM62.124 82.0294H63.0969L60.7075 79.7459L60.8423 79.7214C62.1798 79.4737 63.1146 78.5946 63.1146 77.5821C63.1146 76.292 61.6791 75.319 59.7755 75.319C58.9087 75.319 58.2433 75.334 57.6011 75.3476L57.5847 75.2782V75.3476C56.9506 75.3612 56.2907 75.3762 55.4416 75.3762H55.3817V82.0294H56.0648V79.7894H59.8435L59.8639 79.8098L62.1227 82.0321H62.124V82.0294ZM62.8017 81.9096H62.173L62.1526 81.8892L59.8938 79.6669H55.9464V81.9069H55.5001V75.4891H55.5695C56.3574 75.4891 56.9806 75.4742 57.5834 75.4606H57.597C58.246 75.4456 58.9101 75.432 59.7741 75.432C61.5798 75.432 62.9949 76.3737 62.9949 77.5767C62.9949 78.5851 61.9526 79.4723 60.5701 79.637L60.4449 79.652L62.8044 81.9055H62.803L62.8017 81.9096ZM62.2288 81.7735H62.4533L60.132 79.5554L60.5497 79.505C61.8628 79.3485 62.852 78.5211 62.852 77.5808C62.852 76.4553 61.4995 75.5749 59.7714 75.5749C58.9087 75.5749 58.246 75.5898 57.6038 75.6035H57.5834C56.9983 75.6171 56.3941 75.6293 55.6376 75.632V81.7722H55.8036V79.5322H59.9496L59.97 79.5526L62.2288 81.7749V81.7735ZM60.0639 79.4438C59.3047 79.4438 58.3358 79.4397 57.5099 79.4383H57.3602C56.7724 79.437 56.2744 79.4342 56.0022 79.4342H55.8022V75.7531H56.0022C56.5914 75.7531 57.1221 75.7395 57.6827 75.7273C58.3168 75.7123 58.9672 75.6974 59.7795 75.6974C61.2015 75.6974 62.6738 76.4064 62.6738 77.5957C62.6738 78.4844 61.675 79.4465 60.0612 79.4465H60.0626L60.0639 79.4438ZM55.9424 79.2941H56.0022C56.2744 79.2941 56.7724 79.2941 57.3602 79.2982H57.5099C58.3358 79.3022 59.306 79.3036 60.0639 79.3036C61.5893 79.3036 62.5363 78.415 62.5363 77.5917C62.5363 76.4907 61.1362 75.8321 59.7823 75.8321C58.9699 75.8321 58.3222 75.847 57.6949 75.862C57.1262 75.8756 56.5955 75.8879 56.0049 75.8879H55.9451V79.2927H55.9437L55.9424 79.2941ZM60.0639 79.1852C59.2666 79.1852 58.2351 79.1811 57.3861 79.1798C56.8717 79.1798 56.424 79.1757 56.1342 79.1757H56.0648V76.0076H56.1342C56.6799 76.0063 57.1752 75.994 57.6977 75.9818C58.325 75.9668 58.9726 75.9518 59.7823 75.9518C61.4314 75.9518 62.4166 76.786 62.4166 77.5917C62.4166 78.5442 61.2001 79.1838 60.0626 79.1838L60.0639 79.1852ZM56.2009 79.041C56.4921 79.041 56.9098 79.041 57.3833 79.045C58.2338 79.0464 59.2638 79.0505 60.0612 79.0505C61.1307 79.0505 62.2751 78.4667 62.2751 77.5957C62.2751 76.8582 61.3416 76.0947 59.7795 76.0947C58.9713 76.0947 58.3236 76.1097 57.6977 76.1247C57.1956 76.1355 56.7193 76.1478 56.1995 76.1505V79.0423L56.2009 79.041Z" fill="#324453"/>
<path d="M64.6743 75.4348H65.2485V81.971H64.6743V75.4348Z" fill="#324453"/>
<path d="M65.3179 82.0402H64.6035V75.3666H65.3179V82.0402ZM64.7437 81.9014H65.1777V75.504H64.7437V81.9014Z" fill="#324453"/>
<path d="M65.3791 82.0975H64.5464V75.3055H65.3791V82.0975ZM64.8036 81.8417H65.1192V75.5627H64.8036V81.8417Z" fill="#324453"/>
<path d="M65.4485 82.1669H64.4756V75.2361H65.4485V82.1669ZM64.613 82.0281H65.3056V75.3749H64.613V82.0281ZM65.1886 81.9097H64.7328V75.4919H65.1886V81.9097ZM64.8716 81.7709H65.0471V75.6294H64.8716V81.7709Z" fill="#324453"/>
<path d="M24.6853 7.95977L35.9125 7.91895C35.7846 10.2827 34.9205 16.7958 28.4164 24.2872C22.7449 30.8193 15.7305 33.1681 13.1234 34.0051C11.6185 34.4882 10.334 34.7794 9.42773 34.9563L9.44406 29.8994C11.3246 29.1019 15.7536 26.8334 19.6276 21.6975C24.0621 15.8159 24.5982 9.85407 24.6853 7.95977Z" fill="#324453"/>
<path d="M40.1097 7.95422L51.8702 7.96783C50.8878 12.2327 47.8099 20.6496 38.5353 28.7711C31.6515 34.801 24.2629 37.0777 21.0911 38.0195C16.428 39.4048 12.3554 39.8648 9.42578 40.0131L9.44075 36.2871C12.5459 35.9265 20.7999 34.5302 28.5342 27.7369C37.6087 19.7678 39.647 10.7902 40.1097 7.95422Z" fill="#324453"/>
<path d="M57.8449 7.98682H65.4322V18.1755C61.2426 23.5114 54.2853 30.8504 44.0025 36.9103C33.144 43.309 23.5565 45.3027 21.159 45.7694C16.4292 46.6866 12.3729 46.9547 9.42969 47.0105L9.43377 41.6161C15.1964 41.2705 26.9501 39.7463 38.1501 31.8847C46.7838 25.8248 51.7993 18.3075 53.624 15.5205C55.5603 12.5634 56.9278 9.92603 57.8449 7.98682Z" fill="#324453"/>
<path d="M9.42969 52.8621V48.3427C20.6909 48.193 41.1491 46.0633 58.2722 31.8968C60.9337 29.6963 63.3721 27.3992 65.4377 25.0885L65.4322 40.2565C62.0264 42.7265 57.4462 45.5679 51.9272 48.061C45.9292 50.7718 41.1953 51.9598 39.9721 52.2578C35.4518 53.3506 31.9888 53.6459 29.8443 53.8187C24.6669 54.2379 19.7384 53.8922 17.2442 53.6854" fill="#324453"/>
<path d="M9.42969 54.2953C11.4789 54.6451 14.501 55.0996 18.1763 55.4235C25.7241 56.0903 36.2873 57.0225 48.1717 53.6176C52.3667 52.416 58.6355 50.1665 65.4322 45.6893L65.4431 58.1792C63.0687 59.1849 60.2166 60.0939 56.9822 60.9009C55.9617 61.1554 51.9286 62.2128 46.2204 62.9939C41.7832 63.6008 37.2112 64.2268 31.0921 63.9029C28.2346 63.7532 24.1062 63.3477 19.2635 62.1883C15.3746 61.2602 12.0708 60.0953 9.43241 59.0066V54.2953H9.43105H9.42969Z" fill="#324453"/>
<path d="M65.4416 70.6309H9.39551V60.5674C11.6039 61.4764 13.9321 62.5406 16.38 63.2809C35.3877 69.0346 53.1476 66.3224 65.4416 62.8318V70.6309Z" fill="#324453"/>
</g>
<defs>
<clipPath id="clip0_1512_11372">
<rect width="56.061" height="74.3418" fill="white" transform="translate(9.3877 7.91895)"/>
</clipPath>
</defs>
</svg>
