<svg width="138" height="183" viewBox="0 0 138 183" fill="none" xmlns="http://www.w3.org/2000/svg">
<g clip-path="url(#clip0_138_11591)">
<path d="M11.0468 165.966C13.3211 165.966 15.9437 166.448 17.5649 167.574V169.182C15.9437 167.781 13.368 167.229 11.0702 167.229C5.50665 167.229 1.90593 170.012 1.90593 174.24C1.90593 178.468 5.54685 181.251 11.1874 181.251C13.4852 181.251 15.9437 180.675 17.5649 179.298V180.906C15.9437 182.032 13.4584 182.514 11.164 182.514C4.66928 182.514 0.492432 179.205 0.492432 174.24C0.492432 169.275 4.62238 165.966 11.0468 165.966Z" fill="#EDE7DE"/>
<path d="M11.1639 182.685C4.57542 182.685 0.321533 179.369 0.321533 174.24C0.321533 169.111 4.53522 165.795 11.0467 165.795C13.7095 165.795 16.1848 166.408 17.662 167.436L17.7357 167.487V169.56L17.451 169.316C16.0408 168.1 13.7162 167.403 11.0668 167.403C5.60372 167.403 2.07668 170.089 2.07668 174.243C2.07668 178.397 5.65061 181.084 11.184 181.084C13.7363 181.084 16.0207 180.387 17.451 179.171L17.7357 178.93V180.997L17.662 181.047C16.1614 182.089 13.7899 182.688 11.1639 182.688V182.678V182.685ZM11.0467 166.137C4.74289 166.137 0.663184 169.316 0.663184 174.24C0.663184 179.164 4.78309 182.343 11.1606 182.343C13.676 182.343 15.9403 181.787 17.3907 180.812V179.65C15.8901 180.779 13.656 181.419 11.184 181.419C5.44294 181.419 1.73168 178.598 1.73168 174.237C1.73168 169.875 5.39605 167.054 11.0668 167.054C13.6292 167.054 15.9068 167.694 17.3907 168.82V167.657C15.9571 166.699 13.5957 166.127 11.0433 166.127L11.0467 166.137Z" fill="#EDE7DE"/>
<path d="M11.1638 182.829C7.9148 182.829 5.1615 182.019 3.19533 180.484C1.21912 178.94 0.174072 176.779 0.174072 174.237C0.174072 171.694 1.20572 169.534 3.16519 167.989C5.10791 166.455 7.83776 165.645 11.0499 165.645C13.743 165.645 16.2484 166.268 17.749 167.313L17.883 167.403V169.872L17.3537 169.416C15.9737 168.224 13.6793 167.541 11.0667 167.541C5.69742 167.541 2.22398 170.167 2.22398 174.234C2.22398 178.3 5.73762 180.927 11.1839 180.927C13.6994 180.927 15.9503 180.24 17.3537 179.047L17.8796 178.602V181.064L17.7456 181.154C16.2216 182.213 13.8166 182.823 11.1638 182.823H11.1672L11.1638 182.829ZM11.0466 166.284C4.8299 166.284 0.81383 169.41 0.81383 174.24C0.81383 179.071 4.87679 182.196 11.1638 182.196C13.6123 182.196 15.8163 181.667 17.2465 180.736V179.935C15.7259 180.977 13.5654 181.566 11.1873 181.566C5.35577 181.566 1.59092 178.692 1.59092 174.24C1.59092 169.788 5.30888 166.914 11.07 166.914C13.5286 166.914 15.7393 167.5 17.2432 168.539V167.742C15.8297 166.824 13.5286 166.281 11.0466 166.281V166.284Z" fill="#EDE7DE"/>
<path d="M11.1639 183C7.87806 183 5.08791 182.176 3.08825 180.618C1.07184 179.044 0 176.836 0 174.237C0 171.637 1.0551 169.43 3.05476 167.855C5.03097 166.298 7.79097 165.474 11.0467 165.474C13.7699 165.474 16.3155 166.11 17.8429 167.169L18.0505 167.313V170.244L17.2366 169.544C15.8867 168.378 13.6392 167.711 11.0634 167.711C5.79466 167.711 2.39155 170.274 2.39155 174.234C2.39155 178.193 5.84155 180.759 11.1773 180.759C13.656 180.759 15.8633 180.092 17.2366 178.92L18.0472 178.233V181.154L17.8395 181.302C16.2853 182.38 13.8502 182.997 11.1539 182.997H11.1639V183ZM11.0467 165.825C7.87136 165.825 5.18505 166.623 3.26913 168.133C1.3599 169.641 0.345 171.755 0.345 174.247C0.345 176.739 1.3666 178.85 3.30262 180.36C5.23529 181.871 7.9551 182.669 11.1639 182.669C13.7866 182.669 16.1514 182.076 17.6486 181.034L17.7089 180.994V178.994L17.4677 179.201C16.0308 180.421 13.7431 181.118 11.1874 181.118C5.64058 181.118 2.0566 178.421 2.0566 174.254C2.0566 170.086 5.59369 167.39 11.0701 167.39C13.7263 167.39 16.0576 168.09 17.4677 169.306L17.7089 169.517V167.514L17.6486 167.474C16.1715 166.452 13.7062 165.839 11.0467 165.839V165.829V165.825ZM11.1639 182.374C4.76971 182.374 0.643107 179.181 0.643107 174.247C0.643107 169.313 4.72951 166.117 11.0467 166.117C13.5488 166.117 15.9001 166.673 17.3404 167.604L17.4208 167.654V168.87L17.1495 168.686C15.6556 167.658 13.4985 167.092 11.0735 167.092C5.41952 167.092 1.76519 169.902 1.76519 174.247C1.76519 178.592 5.46641 181.402 11.1907 181.402C13.5354 181.402 15.6489 180.836 17.1495 179.804L17.4208 179.62V180.836L17.3404 180.886C15.8901 181.831 13.6359 182.374 11.1606 182.374H11.1639ZM11.0467 166.455C4.93384 166.455 0.984757 169.514 0.984757 174.24C0.984757 178.967 4.97738 182.025 11.1606 182.025C13.522 182.025 15.669 181.523 17.0691 180.642V180.25C15.5317 181.208 13.455 181.734 11.184 181.734C5.25204 181.734 1.41684 178.789 1.41684 174.237C1.41684 169.684 5.20515 166.74 11.0701 166.74C13.4215 166.74 15.5384 167.266 17.0725 168.221V167.832C15.6824 166.964 13.4383 166.448 11.0467 166.448V166.455Z" fill="#EDE7DE"/>
<path d="M21.4604 166.197H22.8739V173.621H38.3688V166.197H39.7823V182.287H38.3688V174.863H22.8739V182.287H21.4604V166.197Z" fill="#EDE7DE"/>
<path d="M39.9563 182.457H38.1978V175.034H23.0446V182.457H21.2861V166.029H23.0446V173.453H38.1978V166.029H39.9563V182.457ZM38.5428 182.115H39.6113V166.368H38.5428V173.791H22.703V166.368H21.6345V182.115H22.703V174.692H38.5428V182.115Z" fill="#EDE7DE"/>
<path d="M40.107 182.598H38.0571V175.175H23.202V182.598H21.1521V165.879H23.202V173.302H38.0571V165.879H40.107V182.598ZM38.6902 181.968H39.4672V166.512H38.6902V173.935H22.5555V166.512H21.7785V181.968H22.5555V174.545H38.6902V181.968Z" fill="#EDE7DE"/>
<path d="M40.2778 182.769H37.8795V175.346H23.3694V182.769H20.9712V165.708H23.3694V173.131H37.8795V165.708H40.2778V182.769ZM38.2212 182.427H39.9294V166.05H38.2212V173.473H23.0177V166.05H21.3128V182.427H23.0177V175.004H38.2212V182.427ZM39.6347 182.136H38.5126V174.712H22.723V182.136H21.6009V166.338H22.723V173.761H38.5126V166.338H39.6347V182.136ZM38.8576 181.794H39.2897V166.676H38.8576V174.099H22.3813V166.676H21.9492V181.794H22.3813V174.371H38.8576V181.794Z" fill="#EDE7DE"/>
<path d="M51.4552 166.197H55.699L63.8383 182.287H62.331L60.2208 178.126H46.9065L44.7963 182.287H43.3125L51.4518 166.197H51.4552ZM59.6648 176.927L54.8616 167.484H52.2624L47.4592 176.927H59.6648Z" fill="#EDE7DE"/>
<path d="M64.1199 182.457H62.2274L60.1172 178.297H47.0139L44.9037 182.457H43.0347L51.3482 166.029H55.8064L64.1199 182.457ZM62.4351 182.115H63.5571L55.5887 166.368H51.5592L43.5907 182.115H44.6893L46.7995 177.955H60.3249L62.4351 182.115ZM59.943 177.097H47.1847L52.1587 167.306H54.9656L59.9397 177.097H59.943ZM47.7441 176.756H59.387L54.7613 167.651H52.3765L47.7508 176.756H47.7474H47.7441Z" fill="#EDE7DE"/>
<path d="M64.3575 182.598H62.1367L60.0265 178.438H47.1075L44.9973 182.598H42.7966L51.2575 165.879H55.8966L64.3575 182.598ZM62.5286 181.968H63.3225L55.5013 166.512H51.6528L43.8316 181.968H44.602L46.7122 177.808H60.4184L62.5286 181.968ZM60.1806 177.245H46.9433L52.0681 167.165H55.0592L60.184 177.245H60.1806ZM47.9817 176.615H59.149L54.6673 167.802H52.4633L47.9817 176.615Z" fill="#EDE7DE"/>
<path d="M64.6322 182.769H62.0296L59.9194 178.608H47.2147L45.1045 182.769H42.5254L51.1604 165.708H56.0105L64.6456 182.769H64.6422H64.6322ZM62.2373 182.427H64.0728L55.7828 166.05H51.3581L43.068 182.427H44.8801L46.9903 178.267H60.1237L62.2339 182.427H62.2373ZM63.5938 182.136H62.4115L60.3013 177.975H46.8061L44.6959 182.136H43.5369L51.5289 166.338H55.5918L63.5838 182.136H63.5938ZM62.6258 181.794H63.0345L55.3875 166.676H51.7466L44.0997 181.794H44.4849L46.5951 177.634H60.5156L62.6258 181.794ZM60.4553 177.412H46.662L51.9576 166.991H55.1598L60.4553 177.412ZM47.2181 177.071H59.896L54.9487 167.329H52.1686L47.2214 177.071H47.2181ZM59.417 176.779H47.6903L52.3428 167.624H54.7612L59.4136 176.779H59.417ZM48.2531 176.438H58.8576L54.5535 167.966H52.5572L48.2531 176.438Z" fill="#EDE7DE"/>
<path d="M67.3386 166.197H69.9378L77.5915 180.31H78.4523L86.2667 166.197H88.866V182.287H87.5228V167.644H86.9199L79.0586 181.895H76.9718L69.2947 167.644H68.6918V182.287H67.3487V166.197H67.3453H67.3386Z" fill="#EDE7DE"/>
<path d="M89.0401 182.457H87.352V167.815H87.0204L79.1591 182.065H76.868L69.1909 167.815H68.8593V182.457H67.1711V166.029H70.045L77.6987 180.142H78.3552L86.1696 166.029H89.0435V182.457H89.0401ZM87.697 182.115H88.6951V166.368H86.3706L78.5561 180.481H77.491L69.8374 166.368H67.5128V182.115H68.5143V167.473H69.3919L77.069 181.723H78.9514L86.8127 167.473H87.6903V182.115H87.6936H87.697Z" fill="#EDE7DE"/>
<path d="M89.1842 182.598H87.1979V167.956H87.1041L79.2428 182.206H76.7742L69.0971 167.956H69.0033V182.598H67.0171V165.879H70.1221L77.7757 179.992H78.2547L86.0691 165.879H89.1741V182.598H89.1775H89.1842ZM87.841 181.968H88.5478V166.512H86.4543L78.6399 180.625H77.4039L69.7503 166.512H67.6635V181.968H68.3703V167.326H69.4823L77.1594 181.576H78.8643L86.7256 167.326H87.8377V181.968H87.841Z" fill="#EDE7DE"/>
<path d="M89.3549 182.769H87.027V168.448L79.3432 182.377H76.6703L69.1741 168.462V182.769H66.8462V165.708H70.2259L77.8795 179.821H78.1542L85.9686 165.708H89.3482V182.769H89.3583H89.3549ZM87.3754 182.427H89.0133V166.05H86.1829L78.3685 180.163H77.6852L70.0316 166.05H67.2012V182.427H68.8392V167.785H69.2076L76.8847 182.035H79.149L87.0103 167.785H87.3821V182.427H87.3754ZM88.7185 182.136H87.6668V167.493H86.8294L78.9681 181.744H77.0555L69.3784 167.493H68.541V182.136H67.4893V166.338H69.8507L77.5043 180.451H78.536L86.3504 166.338H88.7185V182.136ZM88.0118 181.794H88.3735V166.676H86.5547L78.7403 180.789H77.3L69.6464 166.676H67.8343V181.794H68.196V167.152H69.5861L77.2632 181.402H78.7638L86.6251 167.152H88.0118V181.794Z" fill="#EDE7DE"/>
<path d="M93.5083 166.197H109.512V167.436H94.9218V173.643H108.122V174.836H94.9218V181.043H109.512V182.283H93.5083V166.193V166.197Z" fill="#EDE7DE"/>
<path d="M109.683 182.457H93.3376V166.029H109.683V167.61H95.0928V173.476H108.293V175.014H95.0928V180.879H109.683V182.46V182.457ZM93.6793 182.115H109.338V181.218H94.7478V174.672H107.948V173.821H94.7478V167.275H109.338V166.378H93.6793V182.125V182.115Z" fill="#EDE7DE"/>
<path d="M109.831 182.598H93.1868V165.879H109.831V167.755H95.24V173.329H108.44V175.158H95.24V180.732H109.831V182.608V182.598ZM93.8232 181.968H109.191V181.359H94.6003V174.522H107.801V173.959H94.6003V167.122H109.191V166.512H93.8232V181.968Z" fill="#EDE7DE"/>
<path d="M110.005 182.769H93.0161V165.708H110.005V167.926H95.4144V173.158H108.615V175.329H95.4144V180.561H110.005V182.776V182.766V182.769ZM93.3611 182.427H109.656V180.896H95.066V174.98H108.266V173.493H95.066V167.577H109.656V166.046H93.3611V182.424V182.427ZM109.368 182.136H93.6592V166.338H109.368V167.286H94.778V173.781H107.978V174.686H94.778V181.181H109.368V182.129V182.136ZM93.9975 181.801H109.02V181.533H94.4296V174.354H107.63V174.133H94.4296V166.954H109.02V166.686H93.9975V181.801Z" fill="#EDE7DE"/>
<path d="M113.358 166.197C117.578 166.197 119.759 166.06 124.029 166.06C128.621 166.06 132.102 168.428 132.102 171.483C132.102 174.106 129.455 176.287 126.002 176.699L131.847 182.283H129.874L124.264 176.769H114.754V182.283H113.364V166.194H113.361L113.358 166.197ZM124.749 175.577C128.25 175.577 130.688 173.553 130.688 171.51C130.688 169.466 128.112 167.326 124.053 167.326C120.271 167.326 117.836 167.463 114.751 167.463V175.553C116.396 175.553 121.41 175.577 124.746 175.577H124.749Z" fill="#EDE7DE"/>
<path d="M132.272 182.457H129.804L129.754 182.407L124.193 176.936H114.929V182.45H113.194V166.023H113.364C115.465 166.023 117.092 165.986 118.663 165.952C120.248 165.919 121.889 165.882 124.033 165.882C128.732 165.882 132.276 168.287 132.276 171.476C132.276 174.076 129.817 176.283 126.377 176.816L132.272 182.45V182.457ZM129.948 182.122H131.422L125.624 176.578L125.982 176.538C129.372 176.132 131.927 173.962 131.927 171.49C131.927 168.495 128.534 166.237 124.029 166.237C121.889 166.237 120.254 166.274 118.67 166.307C117.139 166.341 115.558 166.371 113.532 166.378V182.125H114.577V176.611H124.331L124.381 176.662L129.941 182.132H129.945L129.948 182.122ZM124.749 175.747C122.787 175.747 120.248 175.737 118.151 175.734C116.68 175.73 115.431 175.724 114.748 175.724H114.577V167.292H114.748C116.208 167.292 117.525 167.259 118.908 167.228C120.455 167.192 122.06 167.155 124.046 167.155C128.303 167.155 130.852 169.366 130.852 171.51C130.852 173.654 128.518 175.747 124.743 175.747H124.746H124.749ZM114.925 175.382C115.632 175.382 116.798 175.382 118.158 175.392C120.251 175.395 122.79 175.406 124.749 175.406C127.533 175.406 130.514 173.838 130.514 171.506C130.514 169.533 128.096 167.493 124.053 167.493C122.066 167.493 120.469 167.53 118.921 167.567C117.588 167.6 116.322 167.627 114.922 167.63V175.379H114.925V175.382Z" fill="#EDE7DE"/>
<path d="M132.634 182.598H129.743L124.133 177.084H115.073V182.598H113.046V165.879H113.368C115.468 165.879 117.092 165.842 118.663 165.809C120.248 165.775 121.896 165.738 124.033 165.738C128.816 165.738 132.423 168.207 132.423 171.48C132.423 174.079 130.048 176.29 126.692 176.913L132.644 182.598H132.641H132.634ZM130.008 181.965H131.06L125.299 176.465L125.962 176.388C129.281 175.992 131.783 173.882 131.783 171.487C131.783 168.619 128.38 166.378 124.029 166.378C121.896 166.378 120.254 166.415 118.673 166.448C117.179 166.482 115.639 166.512 113.679 166.519V181.975H114.433V176.461H124.391L130.001 181.975H130.005L130.008 181.965ZM124.749 175.885C122.787 175.885 120.248 175.875 118.151 175.872C116.68 175.872 115.431 175.862 114.751 175.862H114.429V167.139H114.751C116.211 167.139 117.521 167.105 118.911 167.075C120.459 167.038 122.063 167.001 124.053 167.001C127.469 167.001 131.003 168.683 131.003 171.503C131.003 173.614 128.608 175.888 124.746 175.888L124.749 175.885ZM115.069 175.225C115.786 175.225 116.888 175.225 118.151 175.235C120.244 175.239 122.783 175.249 124.743 175.249C127.459 175.249 130.363 173.741 130.363 171.497C130.363 169.594 128.002 167.631 124.049 167.631C122.07 167.631 120.469 167.668 118.921 167.705C117.628 167.738 116.406 167.765 115.066 167.768V175.228L115.069 175.225Z" fill="#EDE7DE"/>
<path d="M133.063 182.769H129.673L129.623 182.719L124.063 177.248H115.247V182.762H112.872V165.701H113.364C115.458 165.701 117.075 165.664 118.636 165.631H118.673C120.257 165.594 121.895 165.561 124.029 165.561C128.913 165.561 132.594 168.103 132.594 171.473C132.594 174.049 130.329 176.287 127.044 177.007L133.063 182.762V182.769ZM129.817 182.43H132.212L126.33 176.809L126.662 176.749C129.954 176.139 132.255 173.975 132.255 171.483C132.255 168.307 128.722 165.912 124.036 165.912C121.902 165.912 120.264 165.949 118.683 165.983L118.643 165.812V165.983C117.082 166.016 115.458 166.053 113.368 166.053H113.22V182.43H114.902V176.917H124.203L124.253 176.967L129.814 182.437H129.817V182.43ZM131.485 182.136H129.938L129.887 182.085L124.327 176.615H114.61V182.129H113.512V166.331H113.682C115.622 166.331 117.156 166.294 118.64 166.261H118.673C120.271 166.224 121.905 166.19 124.032 166.19C128.477 166.19 131.961 168.508 131.961 171.47C131.961 173.952 129.395 176.136 125.992 176.541L125.684 176.578L131.492 182.126H131.488L131.485 182.136ZM130.075 181.801H130.628L124.913 176.34L125.942 176.216C129.174 175.831 131.609 173.795 131.609 171.48C131.609 168.709 128.28 166.542 124.026 166.542C121.902 166.542 120.271 166.579 118.69 166.612H118.64C117.199 166.646 115.712 166.676 113.85 166.683V181.797H114.259V176.283H124.464L124.515 176.334L130.075 181.804V181.801ZM124.746 176.066C122.877 176.066 120.492 176.056 118.459 176.052H118.09C116.643 176.049 115.417 176.042 114.748 176.042H114.255V166.981H114.748C116.198 166.981 117.504 166.947 118.884 166.917C120.445 166.88 122.046 166.844 124.046 166.844C127.546 166.844 131.17 168.589 131.17 171.517C131.17 173.704 128.712 176.072 124.739 176.072H124.743L124.746 176.066ZM114.6 175.697H114.748C115.417 175.697 116.643 175.697 118.09 175.707H118.459C120.492 175.717 122.88 175.721 124.746 175.721C128.501 175.721 130.832 173.533 130.832 171.507C130.832 168.797 127.385 167.175 124.052 167.175C122.053 167.175 120.458 167.212 118.914 167.249C117.514 167.282 116.208 167.313 114.754 167.313H114.607V175.694H114.604L114.6 175.697ZM124.746 175.429C122.783 175.429 120.244 175.419 118.154 175.416C116.888 175.416 115.786 175.406 115.072 175.406H114.902V167.607H115.072C116.416 167.604 117.635 167.574 118.921 167.544C120.465 167.507 122.06 167.47 124.052 167.47C128.112 167.47 130.537 169.523 130.537 171.507C130.537 173.851 127.543 175.426 124.743 175.426L124.746 175.429ZM115.237 175.074C115.953 175.074 116.982 175.074 118.147 175.084C120.241 175.088 122.776 175.098 124.739 175.098C127.372 175.098 130.189 173.661 130.189 171.517C130.189 169.701 127.891 167.822 124.046 167.822C122.056 167.822 120.462 167.859 118.921 167.895C117.685 167.922 116.513 167.952 115.233 167.959V175.078L115.237 175.074Z" fill="#EDE7DE"/>
<path d="M136.094 166.197H137.508V182.287H136.094V166.197Z" fill="#EDE7DE"/>
<path d="M137.678 182.457H135.92V166.029H137.678V182.457ZM136.265 182.115H137.333V166.368H136.265V182.115Z" fill="#EDE7DE"/>
<path d="M137.829 182.598H135.779V165.879H137.829V182.598ZM136.412 181.968H137.189V166.512H136.412V181.968Z" fill="#EDE7DE"/>
<path d="M138 182.769H135.605V165.708H138V182.769ZM135.943 182.427H137.648V166.05H135.943V182.427ZM137.36 182.136H136.238V166.338H137.36V182.136ZM136.58 181.794H137.012V166.676H136.58V181.794Z" fill="#EDE7DE"/>
<path d="M37.6587 0.100496L65.2955 0C64.9807 5.81872 62.8537 21.8512 46.8431 40.2922C32.8823 56.3716 15.6155 62.1535 9.19787 64.2136C5.4933 65.4028 2.33136 66.1197 0.100586 66.5552L0.14078 54.1071C4.76981 52.1441 15.6725 46.5598 25.2085 33.9174C36.1246 19.4393 37.4443 4.76351 37.6587 0.100496Z" fill="#EDE7DE"/>
<path d="M75.6253 0.0869141L104.575 0.120413C102.157 10.6189 94.5802 31.3378 71.7499 51.3299C54.8047 66.1731 36.6169 71.7775 28.8091 74.0956C17.3304 77.5057 7.30525 78.638 0.09375 79.0031L0.130595 69.8312C7.77419 68.9435 28.0923 65.5065 47.131 48.784C69.4689 29.1671 74.4865 7.06804 75.6253 0.0869141Z" fill="#EDE7DE"/>
<path d="M119.283 0.167969H137.96V25.2484C127.647 38.3833 110.521 56.4491 85.2082 71.3661C58.4791 87.1172 34.8784 92.0247 28.9766 93.1737C17.3337 95.4316 7.34876 96.0915 0.10376 96.2288L0.113808 82.9499C14.299 82.0991 43.2321 78.3472 70.802 58.995C92.0546 44.0781 104.401 25.5734 108.893 18.7128C113.659 11.4336 117.025 4.94153 119.283 0.167969Z" fill="#EDE7DE"/>
<path d="M0.10376 110.633V99.5082C27.8243 99.1397 78.1843 93.8972 120.335 59.025C126.886 53.6083 132.889 47.9537 137.973 42.2656L137.96 79.6033C129.576 85.6833 118.301 92.6778 104.716 98.8148C89.9511 105.488 78.2982 108.412 75.287 109.146C64.1599 111.836 55.6354 112.563 50.3565 112.988C37.6116 114.02 25.4797 113.169 19.34 112.66" fill="#EDE7DE"/>
<path d="M0.10376 114.16C5.14813 115.021 12.5874 116.14 21.6344 116.937C40.2142 118.579 66.2165 120.873 95.4711 112.492C105.798 109.534 121.229 103.997 137.96 92.9756L137.987 123.721C132.142 126.196 125.121 128.434 117.159 130.42C114.647 131.047 104.719 133.65 90.6679 135.573C79.7452 137.067 68.4908 138.608 53.428 137.81C46.394 137.442 36.2316 136.443 24.3107 133.589C14.7378 131.305 6.60517 128.437 0.110459 125.757V114.16H0.107109H0.10376Z" fill="#EDE7DE"/>
<path d="M137.983 154.372H0.0200195V129.6C5.45628 131.837 11.1873 134.457 17.2131 136.279C64.0024 150.442 107.72 143.766 137.983 135.174V154.372Z" fill="#EDE7DE"/>
</g>
<defs>
<clipPath id="clip0_138_11591">
<rect width="138" height="183" fill="white"/>
</clipPath>
</defs>
</svg>
